<svg width="1000" height="480" viewBox="0 0 1000 480" xmlns="http://www.w3.org/2000/svg" role="img">
<rect width="1000" height="480" fill="#f4f0e7"></rect><rect x="18" y="18" width="964" height="444" fill="none" stroke="#322e27" stroke-opacity="0.30" stroke-width="1"></rect><rect x="24" y="24" width="952" height="432" fill="none" stroke="#322e27" stroke-opacity="0.15" stroke-width="1"></rect>
<rect x="72" y="196" width="502" height="232" fill="#faf7ef" stroke="#322e27" stroke-opacity="0.13" stroke-width="1"></rect><line x1="100" y1="412" x2="556" y2="412" stroke="#322e27" stroke-opacity="0.42" stroke-width="1"></line><line x1="100" y1="216" x2="100" y2="412" stroke="#322e27" stroke-opacity="0.22" stroke-width="1"></line><text x="556" y="434" text-anchor="end" font-family="Georgia, &#39;Songti SC&#39;, &#39;Source Han Serif SC&#39;, &#39;Noto Serif CJK SC&#39;, STSong, serif" font-style="italic" font-size="13" fill="#8c8475">step →</text><text x="102" y="207" font-family="Georgia, &#39;Songti SC&#39;, &#39;Source Han Serif SC&#39;, &#39;Noto Serif CJK SC&#39;, STSong, serif" font-style="italic" font-size="13" fill="#8c8475">score ↑</text><polyline points="100.0,400.0 104.2,394.8 108.4,369.5 112.6,372.3 116.7,372.9 120.9,372.1 125.1,367.2 129.3,369.2 133.5,358.6 137.7,351.3 141.8,359.3 146.0,358.7 150.2,341.5 154.4,344.4 158.6,349.2 162.8,342.5 166.9,341.7 171.1,333.5 175.3,336.6 179.5,318.2 183.7,333.0 187.9,315.9 192.0,329.9 196.2,328.8 200.4,326.5 204.6,321.2 208.8,313.2 213.0,306.3 217.1,320.6 221.3,299.0 225.5,305.7 229.7,302.4 233.9,299.3 238.1,291.0 242.2,297.4 246.4,288.9 250.6,289.6 254.8,306.6 259.0,302.1 263.2,296.4 267.3,293.4 271.5,301.7 275.7,298.8 279.9,281.5 284.1,289.7 288.3,287.2 292.4,285.1 296.6,272.7 300.8,277.4 305.0,276.7 309.2,284.1 313.4,282.5 317.5,286.6 321.7,285.8 325.9,266.5 330.1,279.5 334.3,281.8 338.5,270.5 342.6,276.7 346.8,282.8 351.0,266.9 355.2,260.6 359.4,268.6 363.6,261.4 367.7,264.7 371.9,257.8 376.1,276.0 380.3,265.7 384.5,262.3 388.7,256.0 392.8,253.7 397.0,256.0 401.2,261.2 405.4,252.0 409.6,251.4 413.8,260.7 417.9,253.9 422.1,272.5 426.3,260.0 430.5,264.0 434.7,254.2 438.9,257.9 443.0,252.6 447.2,247.0 451.4,256.5 455.6,249.8 459.8,258.7 464.0,253.3 468.1,250.7 472.3,254.7 476.5,260.0 480.7,261.5 484.9,266.5 489.1,265.9 493.2,243.9 497.4,246.2 501.6,250.7 505.8,264.9 510.0,250.4 514.2,250.7 518.3,247.6 522.5,240.8 526.7,257.4 530.9,240.5 535.1,248.2 539.3,244.3 543.4,248.4 547.6,243.3 551.8,259.4 556.0,239.0" fill="none" stroke="#a86b46" stroke-width="1.2" opacity="0.62" stroke-linejoin="round"></polyline><path d="M100.0 400.0 C100.7 399.9,102.8 400.0,104.2 399.5 C105.6 398.9,107.0 397.4,108.4 396.5 C109.8 395.6,111.2 394.8,112.6 394.0 C113.9 393.3,115.3 392.6,116.7 391.9 C118.1 391.2,119.5 390.6,120.9 389.9 C122.3 389.2,123.7 388.3,125.1 387.7 C126.5 387.0,127.9 386.6,129.3 385.8 C130.7 385.1,132.1 384.1,133.5 383.1 C134.9 382.1,136.3 380.8,137.7 379.9 C139.0 379.0,140.4 378.5,141.8 377.8 C143.2 377.2,144.6 376.8,146.0 375.9 C147.4 375.0,148.8 373.5,150.2 372.5 C151.6 371.4,153.0 370.5,154.4 369.7 C155.8 368.9,157.2 368.4,158.6 367.6 C160.0 366.9,161.4 365.9,162.8 365.1 C164.1 364.3,165.5 363.7,166.9 362.8 C168.3 361.9,169.7 360.7,171.1 359.8 C172.5 359.0,173.9 358.6,175.3 357.5 C176.7 356.5,178.1 354.6,179.5 353.6 C180.9 352.6,182.3 352.5,183.7 351.5 C185.1 350.6,186.5 348.9,187.9 348.0 C189.2 347.1,190.6 346.8,192.0 346.2 C193.4 345.6,194.8 345.0,196.2 344.4 C197.6 343.8,199.0 343.3,200.4 342.6 C201.8 342.0,203.2 341.3,204.6 340.5 C206.0 339.7,207.4 338.7,208.8 337.8 C210.2 336.8,211.6 335.4,213.0 334.6 C214.3 333.9,215.7 334.0,217.1 333.2 C218.5 332.4,219.9 330.8,221.3 329.8 C222.7 328.8,224.1 328.2,225.5 327.4 C226.9 326.6,228.3 325.7,229.7 324.9 C231.1 324.0,232.5 323.3,233.9 322.3 C235.3 321.4,236.7 320.1,238.1 319.2 C239.4 318.3,240.8 317.8,242.2 317.0 C243.6 316.2,245.0 315.1,246.4 314.2 C247.8 313.3,249.2 312.2,250.6 311.7 C252.0 311.2,253.4 311.5,254.8 311.2 C256.2 311.0,257.6 310.7,259.0 310.3 C260.4 309.9,261.8 309.4,263.2 308.9 C264.6 308.4,265.9 307.7,267.3 307.4 C268.7 307.0,270.1 307.0,271.5 306.8 C272.9 306.6,274.3 306.5,275.7 306.0 C277.1 305.5,278.5 304.2,279.9 303.6 C281.3 302.9,282.7 302.6,284.1 302.2 C285.5 301.7,286.9 301.2,288.3 300.7 C289.7 300.2,291.0 299.8,292.4 299.1 C293.8 298.4,295.2 297.2,296.6 296.5 C298.0 295.7,299.4 295.2,300.8 294.6 C302.2 293.9,303.6 293.2,305.0 292.8 C306.4 292.3,307.8 292.2,309.2 291.9 C310.6 291.6,312.0 291.2,313.4 291.0 C314.8 290.7,316.1 290.7,317.5 290.5 C318.9 290.4,320.3 290.5,321.7 290.0 C323.1 289.6,324.5 288.2,325.9 287.7 C327.3 287.2,328.7 287.1,330.1 286.9 C331.5 286.7,332.9 286.7,334.3 286.4 C335.7 286.0,337.1 285.2,338.5 284.8 C339.9 284.4,341.2 284.1,342.6 284.0 C344.0 283.8,345.4 284.2,346.8 283.9 C348.2 283.6,349.6 282.8,351.0 282.2 C352.4 281.5,353.8 280.6,355.2 280.0 C356.6 279.5,358.0 279.3,359.4 278.9 C360.8 278.4,362.2 277.6,363.6 277.1 C365.0 276.6,366.3 276.4,367.7 275.9 C369.1 275.4,370.5 274.3,371.9 274.1 C373.3 273.8,374.7 274.4,376.1 274.3 C377.5 274.2,378.9 273.7,380.3 273.4 C381.7 273.1,383.1 272.7,384.5 272.3 C385.9 271.8,387.3 271.2,388.7 270.7 C390.1 270.1,391.4 269.5,392.8 269.0 C394.2 268.5,395.6 268.0,397.0 267.7 C398.4 267.3,399.8 267.4,401.2 267.0 C402.6 266.7,404.0 266.0,405.4 265.5 C406.8 265.0,408.2 264.4,409.6 264.1 C411.0 263.8,412.4 264.0,413.8 263.8 C415.2 263.5,416.6 262.8,417.9 262.8 C419.3 262.8,420.7 263.6,422.1 263.7 C423.5 263.8,424.9 263.4,426.3 263.4 C427.7 263.3,429.1 263.6,430.5 263.4 C431.9 263.3,433.3 262.7,434.7 262.5 C436.1 262.3,437.5 262.3,438.9 262.0 C440.3 261.8,441.7 261.5,443.0 261.1 C444.4 260.7,445.8 260.0,447.2 259.7 C448.6 259.4,450.0 259.6,451.4 259.4 C452.8 259.2,454.2 258.6,455.6 258.4 C457.0 258.3,458.4 258.5,459.8 258.4 C461.2 258.4,462.6 258.1,464.0 257.9 C465.4 257.7,466.8 257.4,468.1 257.2 C469.5 257.0,470.9 257.0,472.3 257.0 C473.7 257.0,475.1 257.1,476.5 257.3 C477.9 257.4,479.3 257.5,480.7 257.7 C482.1 257.9,483.5 258.3,484.9 258.6 C486.3 258.8,487.7 259.4,489.1 259.3 C490.5 259.2,491.9 258.2,493.2 257.8 C494.6 257.3,496.0 256.9,497.4 256.6 C498.8 256.3,500.2 256.0,501.6 256.0 C503.0 256.1,504.4 256.9,505.8 256.9 C507.2 256.9,508.6 256.5,510.0 256.3 C511.4 256.1,512.8 255.9,514.2 255.7 C515.6 255.5,517.0 255.3,518.3 254.9 C519.7 254.5,521.1 253.7,522.5 253.5 C523.9 253.3,525.3 254.0,526.7 253.9 C528.1 253.7,529.5 252.8,530.9 252.5 C532.3 252.2,533.7 252.3,535.1 252.1 C536.5 251.9,537.9 251.5,539.3 251.3 C540.7 251.1,542.1 251.2,543.4 251.0 C544.8 250.9,546.2 250.2,547.6 250.3 C549.0 250.3,550.4 251.2,551.8 251.2 C553.2 251.1,555.3 250.2,556.0 250.0" fill="none" stroke="#4d6373" stroke-width="2.6" stroke-linecap="round"></path><text x="236.79999999999998" y="278.9638913552862" font-family="Georgia, &#39;Songti SC&#39;, &#39;Source Han Serif SC&#39;, &#39;Noto Serif CJK SC&#39;, STSong, serif" font-style="italic" font-size="13.5" fill="#a86b46">原始 · raw</text><text x="437.44" y="286.04780521317025" font-family="Georgia, &#39;Songti SC&#39;, &#39;Source Han Serif SC&#39;, &#39;Noto Serif CJK SC&#39;, STSong, serif" font-style="italic" font-size="13.5" fill="#4d6373">平滑后 · smoothed</text><text x="56" y="72" font-family="Georgia, &#39;Songti SC&#39;, &#39;Source Han Serif SC&#39;, &#39;Noto Serif CJK SC&#39;, STSong, serif" font-size="12" letter-spacing="2.4" fill="#8c8475">FIG. 01 · LEARNING-CURVE STATS</text><text x="56" y="112" font-family="Georgia, &#39;Songti SC&#39;, &#39;Source Han Serif SC&#39;, &#39;Noto Serif CJK SC&#39;, STSong, serif" font-size="31" fill="#322e27"><tspan font-style="italic">Smoothing</tspan><tspan fill="#8c8475"> · </tspan><tspan>平滑</tspan></text><text x="56" y="150" font-family="Georgia, &#39;Songti SC&#39;, &#39;Source Han Serif SC&#39;, &#39;Noto Serif CJK SC&#39;, STSong, serif" font-style="italic" font-size="18.5" fill="#322e27" opacity="0.82">噪声之下,何为真实的趋势？</text><text x="56" y="174" font-family="Georgia, &#39;Songti SC&#39;, &#39;Source Han Serif SC&#39;, &#39;Noto Serif CJK SC&#39;, STSong, serif" font-style="italic" font-size="13.5" fill="#8c8475">Beneath the noise, what is truly there?</text><line x1="606" y1="74" x2="606" y2="436" stroke="#322e27" stroke-opacity="0.20" stroke-width="1"></line><text x="636" y="100" font-family="Georgia, &#39;Songti SC&#39;, &#39;Source Han Serif SC&#39;, &#39;Noto Serif CJK SC&#39;, STSong, serif" font-size="12" letter-spacing="2.4" fill="#8c8475">AI 由此读出</text><text x="636" y="146" font-family="Georgia, &#39;Songti SC&#39;, &#39;Source Han Serif SC&#39;, &#39;Noto Serif CJK SC&#39;, STSong, serif" font-size="16" fill="#4d6373">—</text><text x="660" y="146" font-family="Georgia, &#39;Songti SC&#39;, &#39;Source Han Serif SC&#39;, &#39;Noto Serif CJK SC&#39;, STSong, serif" font-size="16" fill="#322e27">分离真实趋势与随机噪声</text><text x="636" y="190" font-family="Georgia, &#39;Songti SC&#39;, &#39;Source Han Serif SC&#39;, &#39;Noto Serif CJK SC&#39;, STSong, serif" font-size="16" fill="#4d6373">—</text><text x="660" y="190" font-family="Georgia, &#39;Songti SC&#39;, &#39;Source Han Serif SC&#39;, &#39;Noto Serif CJK SC&#39;, STSong, serif" font-size="16" fill="#322e27">判断训练是否真的在改善</text><text x="636" y="234" font-family="Georgia, &#39;Songti SC&#39;, &#39;Source Han Serif SC&#39;, &#39;Noto Serif CJK SC&#39;, STSong, serif" font-size="16" fill="#4d6373">—</text><text x="660" y="234" font-family="Georgia, &#39;Songti SC&#39;, &#39;Source Han Serif SC&#39;, &#39;Noto Serif CJK SC&#39;, STSong, serif" font-size="16" fill="#322e27">为斜率、加速度提供干净的曲线</text><text x="72" y="454" font-family="Georgia, &#39;Songti SC&#39;, &#39;Source Han Serif SC&#39;, &#39;Noto Serif CJK SC&#39;, STSong, serif" font-style="italic" font-size="13" fill="#8c8475">EMA / rolling median / Savitzky-Golay / LOWESS</text>
</svg>