<svg width="1000" height="480" viewBox="0 0 1000 480" xmlns="http://www.w3.org/2000/svg" role="img">
<rect width="1000" height="480" fill="#f4f0e7"></rect><rect x="18" y="18" width="964" height="444" fill="none" stroke="#322e27" stroke-opacity="0.30" stroke-width="1"></rect><rect x="24" y="24" width="952" height="432" fill="none" stroke="#322e27" stroke-opacity="0.15" stroke-width="1"></rect>
<rect x="72" y="196" width="502" height="232" fill="#faf7ef" stroke="#322e27" stroke-opacity="0.13" stroke-width="1"></rect><line x1="100" y1="412" x2="556" y2="412" stroke="#322e27" stroke-opacity="0.42" stroke-width="1"></line><line x1="100" y1="216" x2="100" y2="412" stroke="#322e27" stroke-opacity="0.22" stroke-width="1"></line><text x="556" y="434" text-anchor="end" font-family="Georgia, &#39;Songti SC&#39;, &#39;Source Han Serif SC&#39;, &#39;Noto Serif CJK SC&#39;, STSong, serif" font-style="italic" font-size="13" fill="#8c8475">step →</text><text x="102" y="207" font-family="Georgia, &#39;Songti SC&#39;, &#39;Source Han Serif SC&#39;, &#39;Noto Serif CJK SC&#39;, STSong, serif" font-style="italic" font-size="13" fill="#8c8475">score ↑</text><path d="M100.0 374.1 L103.8 372.9 L107.7 371.2 L111.5 368.3 L115.3 364.8 L119.2 363.6 L123.0 361.2 L126.8 359.2 L130.7 357.1 L134.5 354.1 L138.3 353.6 L142.2 351.6 L146.0 349.4 L149.8 347.7 L153.6 345.5 L157.5 344.9 L161.3 344.1 L165.1 341.9 L169.0 339.0 L172.8 335.9 L176.6 334.1 L180.5 333.3 L184.3 332.7 L188.1 331.9 L192.0 329.4 L195.8 328.0 L199.6 327.1 L203.5 323.8 L207.3 322.6 L211.1 319.2 L215.0 316.1 L218.8 314.8 L222.6 314.5 L226.5 313.7 L230.3 310.7 L234.1 308.1 L237.9 308.6 L241.8 307.8 L245.6 304.9 L249.4 302.2 L253.3 301.2 L257.1 300.5 L260.9 300.4 L264.8 299.9 L268.6 297.5 L272.4 297.8 L276.3 297.0 L280.1 295.7 L283.9 294.4 L287.8 291.8 L291.6 290.9 L295.4 290.8 L299.3 291.1 L303.1 289.3 L306.9 287.9 L310.8 286.0 L314.6 283.9 L318.4 284.9 L322.3 284.6 L326.1 283.7 L329.9 284.0 L333.7 283.4 L337.6 281.4 L341.4 281.5 L345.2 280.3 L349.1 281.0 L352.9 281.5 L356.7 281.0 L360.6 279.3 L364.4 277.2 L368.2 277.6 L372.1 276.3 L375.9 274.9 L379.7 274.3 L383.6 273.2 L387.4 273.3 L391.2 273.8 L395.1 274.5 L398.9 272.4 L402.7 270.1 L406.6 269.6 L410.4 267.6 L414.2 268.4 L418.1 268.1 L421.9 267.4 L425.7 267.1 L429.5 267.8 L433.4 268.7 L437.2 266.6 L441.0 264.5 L444.9 264.3 L448.7 263.7 L452.5 262.9 L456.4 263.2 L460.2 261.6 L464.0 262.8 L467.9 262.1 L471.7 261.8 L475.5 261.0 L479.4 260.5 L483.2 259.2 L487.0 258.4 L490.9 257.1 L494.7 258.3 L498.5 257.0 L502.4 255.8 L506.2 254.9 L510.0 254.7 L513.8 256.2 L517.7 254.9 L521.5 255.3 L525.3 254.1 L529.2 254.1 L533.0 254.9 L536.8 255.8 L540.7 254.6 L544.5 253.0 L548.3 253.8 L552.2 252.3 L556.0 253.3 L556.0 282.7 L552.2 281.7 L548.3 283.2 L544.5 282.4 L540.7 284.0 L536.8 285.2 L533.0 284.3 L529.2 283.5 L525.3 283.5 L521.5 284.7 L517.7 284.3 L513.8 285.6 L510.0 284.1 L506.2 284.3 L502.4 285.2 L498.5 286.4 L494.7 287.7 L490.9 286.5 L487.0 287.8 L483.2 288.6 L479.4 289.9 L475.5 290.4 L471.7 291.2 L467.9 291.5 L464.0 292.2 L460.2 291.0 L456.4 292.6 L452.5 292.3 L448.7 293.1 L444.9 293.7 L441.0 293.9 L437.2 296.0 L433.4 298.1 L429.5 297.2 L425.7 296.5 L421.9 296.8 L418.1 297.5 L414.2 297.8 L410.4 297.0 L406.6 299.0 L402.7 299.5 L398.9 301.8 L395.1 303.9 L391.2 303.2 L387.4 302.7 L383.6 302.6 L379.7 303.7 L375.9 304.3 L372.1 305.7 L368.2 307.0 L364.4 306.6 L360.6 308.7 L356.7 310.4 L352.9 310.9 L349.1 310.4 L345.2 309.7 L341.4 310.9 L337.6 310.8 L333.7 312.8 L329.9 313.4 L326.1 313.1 L322.3 314.0 L318.4 314.3 L314.6 313.3 L310.8 315.4 L306.9 317.3 L303.1 318.7 L299.3 320.5 L295.4 320.2 L291.6 320.3 L287.8 321.2 L283.9 323.8 L280.1 325.1 L276.3 326.4 L272.4 327.2 L268.6 326.9 L264.8 329.3 L260.9 329.8 L257.1 329.9 L253.3 330.6 L249.4 331.6 L245.6 334.3 L241.8 337.2 L237.9 338.0 L234.1 337.5 L230.3 340.1 L226.5 343.1 L222.6 343.9 L218.8 344.2 L215.0 345.5 L211.1 348.6 L207.3 352.0 L203.5 353.2 L199.6 356.5 L195.8 357.4 L192.0 358.8 L188.1 361.3 L184.3 362.1 L180.5 362.7 L176.6 363.5 L172.8 365.3 L169.0 368.4 L165.1 371.3 L161.3 373.5 L157.5 374.3 L153.6 374.9 L149.8 377.1 L146.0 378.8 L142.2 381.0 L138.3 383.0 L134.5 383.5 L130.7 386.5 L126.8 388.6 L123.0 390.6 L119.2 393.0 L115.3 394.2 L111.5 397.7 L107.7 400.6 L103.8 402.3 L100.0 403.5 Z" fill="#a8842f" opacity="0.12"></path><polyline points="100.0,388.8 103.8,378.9 107.7,373.0 111.5,362.2 115.3,353.5 119.2,369.4 123.0,358.1 126.8,359.2 130.7,357.0 134.5,346.9 138.3,364.2 142.2,351.9 146.0,347.5 149.8,350.4 153.6,343.6 157.5,355.2 161.3,353.1 165.1,340.1 169.0,332.6 172.8,327.6 176.6,336.0 180.5,341.8 184.3,343.5 188.1,340.1 192.0,325.8 195.8,333.1 199.6,335.0 203.5,313.8 207.3,329.2 211.1,308.9 215.0,308.0 218.8,319.5 222.6,327.1 226.5,322.8 230.3,303.6 234.1,303.8 237.9,326.4 241.8,316.7 245.6,298.5 249.4,297.3 253.3,308.4 257.1,310.1 260.9,314.4 264.8,310.8 268.6,294.5 272.4,315.1 276.3,305.5 280.1,301.0 283.9,299.7 287.8,287.6 291.6,298.5 295.4,305.3 299.3,307.8 303.1,290.8 306.9,292.3 310.8,287.1 314.6,283.1 318.4,306.7 322.3,297.0 326.1,292.3 329.9,300.6 333.7,294.0 337.6,280.9 341.4,297.4 345.2,286.3 349.1,300.6 352.9,299.8 356.7,291.9 360.6,281.7 364.4,276.5 368.2,295.1 372.1,281.1 375.9,279.4 379.7,284.9 383.6,280.1 387.4,288.5 391.2,292.1 395.1,294.3 398.9,271.3 402.7,268.2 406.6,281.1 410.4,267.7 414.2,288.2 418.1,281.3 421.9,276.5 425.7,279.3 429.5,288.3 433.4,289.7 437.2,265.9 441.0,264.0 444.9,277.2 448.7,274.5 452.5,271.4 456.4,280.3 460.2,264.2 464.0,286.8 467.9,271.3 471.7,274.3 475.5,269.8 479.4,271.4 483.2,264.5 487.0,267.5 490.9,262.2 494.7,281.8 498.5,261.8 502.4,262.3 506.2,262.7 510.0,267.8 513.8,281.6 517.7,260.7 521.5,272.4 525.3,260.4 529.2,268.3 533.0,275.5 536.8,277.0 540.7,260.7 544.5,256.0 548.3,274.6 552.2,255.6 556.0,275.9" fill="none" stroke="#a86b46" stroke-width="1.1" opacity="0.66" stroke-linejoin="round"></polyline><path d="M100.0 388.8 C100.6 388.6,102.6 388.1,103.8 387.6 C105.1 387.2,106.4 386.7,107.7 385.9 C108.9 385.1,110.2 384.1,111.5 383.0 C112.8 382.0,114.1 380.3,115.3 379.5 C116.6 378.7,117.9 378.9,119.2 378.3 C120.4 377.7,121.7 376.6,123.0 375.9 C124.3 375.1,125.5 374.5,126.8 373.9 C128.1 373.2,129.4 372.7,130.7 371.8 C131.9 371.0,133.2 369.4,134.5 368.8 C135.8 368.3,137.0 368.7,138.3 368.3 C139.6 367.9,140.9 367.0,142.2 366.3 C143.4 365.6,144.7 364.7,146.0 364.1 C147.3 363.4,148.5 363.1,149.8 362.4 C151.1 361.8,152.4 360.7,153.6 360.2 C154.9 359.7,156.2 359.8,157.5 359.6 C158.8 359.4,160.0 359.3,161.3 358.8 C162.6 358.3,163.9 357.4,165.1 356.6 C166.4 355.7,167.7 354.7,169.0 353.7 C170.3 352.7,171.5 351.4,172.8 350.6 C174.1 349.8,175.4 349.2,176.6 348.8 C177.9 348.4,179.2 348.2,180.5 348.0 C181.7 347.7,183.0 347.7,184.3 347.4 C185.6 347.2,186.9 347.1,188.1 346.6 C189.4 346.0,190.7 344.7,192.0 344.1 C193.2 343.4,194.5 343.1,195.8 342.7 C197.1 342.4,198.4 342.5,199.6 341.8 C200.9 341.1,202.2 339.2,203.5 338.5 C204.7 337.7,206.0 338.1,207.3 337.3 C208.6 336.6,209.8 335.0,211.1 333.9 C212.4 332.8,213.7 331.6,215.0 330.8 C216.2 330.1,217.5 329.7,218.8 329.5 C220.1 329.2,221.3 329.4,222.6 329.2 C223.9 329.0,225.2 329.0,226.5 328.4 C227.7 327.8,229.0 326.4,230.3 325.4 C231.6 324.5,232.8 323.2,234.1 322.8 C235.4 322.5,236.7 323.3,237.9 323.3 C239.2 323.2,240.5 323.1,241.8 322.5 C243.1 321.9,244.3 320.5,245.6 319.6 C246.9 318.7,248.2 317.5,249.4 316.9 C250.7 316.3,252.0 316.2,253.3 315.9 C254.6 315.6,255.8 315.3,257.1 315.2 C258.4 315.1,259.7 315.2,260.9 315.1 C262.2 315.0,263.5 315.1,264.8 314.6 C266.1 314.1,267.3 312.5,268.6 312.2 C269.9 311.8,271.2 312.6,272.4 312.5 C273.7 312.4,275.0 312.0,276.3 311.7 C277.5 311.3,278.8 310.8,280.1 310.4 C281.4 310.0,282.7 309.8,283.9 309.1 C285.2 308.5,286.5 307.1,287.8 306.5 C289.0 306.0,290.3 305.7,291.6 305.6 C292.9 305.4,294.2 305.5,295.4 305.5 C296.7 305.6,298.0 306.1,299.3 305.8 C300.5 305.6,301.8 304.5,303.1 304.0 C304.4 303.5,305.6 303.2,306.9 302.6 C308.2 302.1,309.5 301.4,310.8 300.7 C312.0 300.1,313.3 298.8,314.6 298.6 C315.9 298.4,317.1 299.5,318.4 299.6 C319.7 299.7,321.0 299.5,322.3 299.3 C323.5 299.1,324.8 298.5,326.1 298.4 C327.4 298.4,328.6 298.8,329.9 298.7 C331.2 298.7,332.5 298.6,333.7 298.1 C335.0 297.7,336.3 296.4,337.6 296.1 C338.9 295.8,340.1 296.4,341.4 296.2 C342.7 296.1,344.0 295.1,345.2 295.0 C346.5 295.0,347.8 295.5,349.1 295.7 C350.4 295.9,351.6 296.2,352.9 296.2 C354.2 296.2,355.5 296.1,356.7 295.7 C358.0 295.3,359.3 294.6,360.6 294.0 C361.8 293.4,363.1 292.2,364.4 291.9 C365.7 291.6,367.0 292.5,368.2 292.3 C369.5 292.1,370.8 291.4,372.1 291.0 C373.3 290.5,374.6 289.9,375.9 289.6 C377.2 289.2,378.5 289.3,379.7 289.0 C381.0 288.7,382.3 288.1,383.6 287.9 C384.8 287.8,386.1 287.9,387.4 288.0 C388.7 288.1,389.9 288.3,391.2 288.5 C392.5 288.7,393.8 289.4,395.1 289.2 C396.3 289.0,397.6 287.8,398.9 287.1 C400.2 286.3,401.4 285.2,402.7 284.8 C404.0 284.3,405.3 284.8,406.6 284.3 C407.8 283.9,409.1 282.6,410.4 282.3 C411.7 282.1,412.9 283.0,414.2 283.1 C415.5 283.1,416.8 283.0,418.1 282.8 C419.3 282.7,420.6 282.3,421.9 282.1 C423.2 281.9,424.4 281.7,425.7 281.8 C427.0 281.8,428.3 282.3,429.5 282.5 C430.8 282.8,432.1 283.6,433.4 283.4 C434.7 283.2,435.9 282.0,437.2 281.3 C438.5 280.6,439.8 279.6,441.0 279.2 C442.3 278.8,443.6 279.1,444.9 279.0 C446.2 278.8,447.4 278.7,448.7 278.4 C450.0 278.2,451.3 277.7,452.5 277.6 C453.8 277.5,455.1 278.1,456.4 277.9 C457.6 277.7,458.9 276.3,460.2 276.3 C461.5 276.2,462.8 277.4,464.0 277.5 C465.3 277.6,466.6 277.0,467.9 276.8 C469.1 276.6,470.4 276.7,471.7 276.5 C473.0 276.3,474.3 275.9,475.5 275.7 C476.8 275.5,478.1 275.5,479.4 275.2 C480.6 274.9,481.9 274.2,483.2 273.9 C484.5 273.6,485.7 273.5,487.0 273.1 C488.3 272.8,489.6 271.8,490.9 271.8 C492.1 271.8,493.4 273.0,494.7 273.0 C496.0 273.0,497.2 272.1,498.5 271.7 C499.8 271.3,501.1 270.9,502.4 270.5 C503.6 270.2,504.9 269.8,506.2 269.6 C507.5 269.4,508.7 269.2,510.0 269.4 C511.3 269.6,512.6 270.8,513.8 270.9 C515.1 270.9,516.4 269.8,517.7 269.6 C519.0 269.5,520.2 270.1,521.5 270.0 C522.8 269.8,524.1 269.0,525.3 268.8 C526.6 268.6,527.9 268.6,529.2 268.8 C530.5 268.9,531.7 269.3,533.0 269.6 C534.3 269.9,535.6 270.5,536.8 270.5 C538.1 270.4,539.4 269.8,540.7 269.3 C541.9 268.8,543.2 267.8,544.5 267.7 C545.8 267.6,547.1 268.6,548.3 268.5 C549.6 268.4,550.9 267.1,552.2 267.0 C553.4 266.9,555.4 267.9,556.0 268.0" fill="none" stroke="#322e27" stroke-width="2.2" stroke-linecap="round"></path><line x1="519.52" y1="255.27545428964956" x2="519.52" y2="284.67545428964956" stroke="#a8842f" stroke-width="1.4"></line><text x="511.52" y="249.27545428964956" text-anchor="end" font-family="Georgia, &#39;Songti SC&#39;, &#39;Source Han Serif SC&#39;, &#39;Noto Serif CJK SC&#39;, STSong, serif" font-style="italic" font-size="13.5" fill="#a8842f">residual_std</text><text x="56" y="72" font-family="Georgia, &#39;Songti SC&#39;, &#39;Source Han Serif SC&#39;, &#39;Noto Serif CJK SC&#39;, STSong, serif" font-size="12" letter-spacing="2.4" fill="#8c8475">图 04 · 学习曲线统计</text><text x="56" y="112" font-family="Georgia, &#39;Songti SC&#39;, &#39;Source Han Serif SC&#39;, &#39;Noto Serif CJK SC&#39;, STSong, serif" font-size="31" fill="#322e27"><tspan>噪声</tspan><tspan fill="#8c8475"> · </tspan><tspan font-style="italic">Roughness</tspan></text><text x="56" y="150" font-family="Georgia, &#39;Songti SC&#39;, &#39;Source Han Serif SC&#39;, &#39;Noto Serif CJK SC&#39;, STSong, serif" font-style="italic" font-size="18.5" fill="#322e27" opacity="0.82">这条曲线，值得被信任吗？</text><text x="56" y="174" font-family="Georgia, &#39;Songti SC&#39;, &#39;Source Han Serif SC&#39;, &#39;Noto Serif CJK SC&#39;, STSong, serif" font-style="italic" font-size="13.5" fill="#8c8475">这条曲线是否可信？</text><line x1="606" y1="74" x2="606" y2="436" stroke="#322e27" stroke-opacity="0.20" stroke-width="1"></line><text x="636" y="100" font-family="Georgia, &#39;Songti SC&#39;, &#39;Source Han Serif SC&#39;, &#39;Noto Serif CJK SC&#39;, STSong, serif" font-size="12" letter-spacing="2.4" fill="#8c8475">AI 由此读出</text><text x="636" y="146" font-family="Georgia, &#39;Songti SC&#39;, &#39;Source Han Serif SC&#39;, &#39;Noto Serif CJK SC&#39;, STSong, serif" font-size="16" fill="#a8842f">—</text><text x="660" y="146" font-family="Georgia, &#39;Songti SC&#39;, &#39;Source Han Serif SC&#39;, &#39;Noto Serif CJK SC&#39;, STSong, serif" font-size="16" fill="#322e27"><tspan x="660" dy="0">残差与二阶差分</tspan><tspan x="660" dy="22">量化抖动</tspan></text><text x="636" y="190" font-family="Georgia, &#39;Songti SC&#39;, &#39;Source Han Serif SC&#39;, &#39;Noto Serif CJK SC&#39;, STSong, serif" font-size="16" fill="#a8842f">—</text><text x="660" y="190" font-family="Georgia, &#39;Songti SC&#39;, &#39;Source Han Serif SC&#39;, &#39;Noto Serif CJK SC&#39;, STSong, serif" font-size="16" fill="#322e27"><tspan x="660" dy="0">噪声大：学习率偏高</tspan><tspan x="660" dy="22">或 batch 太小</tspan></text><text x="660" y="216" font-family="Georgia, &#39;Songti SC&#39;, &#39;Source Han Serif SC&#39;, &#39;Noto Serif CJK SC&#39;, STSong, serif" font-size="16" fill="#322e27">验证集小或评估噪声大</text><text x="636" y="260" font-family="Georgia, &#39;Songti SC&#39;, &#39;Source Han Serif SC&#39;, &#39;Noto Serif CJK SC&#39;, STSong, serif" font-size="16" fill="#a8842f">—</text><text x="660" y="260" font-family="Georgia, &#39;Songti SC&#39;, &#39;Source Han Serif SC&#39;, &#39;Noto Serif CJK SC&#39;, STSong, serif" font-size="16" fill="#322e27"><tspan x="660" dy="0">平稳却不升：</tspan><tspan x="660" dy="22">欠拟合或学习率过低</tspan></text><text x="72" y="454" font-family="Georgia, &#39;Songti SC&#39;, &#39;Source Han Serif SC&#39;, &#39;Noto Serif CJK SC&#39;, STSong, serif" font-style="italic" font-size="13" fill="#8c8475"><tspan x="72" dy="0">residual_std / roughness</tspan><tspan x="72" dy="18">rolling_std</tspan></text>
</svg>