<svg width="1000" height="480" viewBox="0 0 1000 480" xmlns="http://www.w3.org/2000/svg" role="img">
<rect width="1000" height="480" fill="#f4f0e7"></rect><rect x="18" y="18" width="964" height="444" fill="none" stroke="#322e27" stroke-opacity="0.30" stroke-width="1"></rect><rect x="24" y="24" width="952" height="432" fill="none" stroke="#322e27" stroke-opacity="0.15" stroke-width="1"></rect>
<rect x="72" y="196" width="502" height="232" fill="#faf7ef" stroke="#322e27" stroke-opacity="0.13" stroke-width="1"></rect><line x1="100" y1="412" x2="556" y2="412" stroke="#322e27" stroke-opacity="0.42" stroke-width="1"></line><line x1="100" y1="216" x2="100" y2="412" stroke="#322e27" stroke-opacity="0.22" stroke-width="1"></line><text x="556" y="434" text-anchor="end" font-family="Georgia, &#39;Songti SC&#39;, &#39;Source Han Serif SC&#39;, &#39;Noto Serif CJK SC&#39;, STSong, serif" font-style="italic" font-size="13" fill="#8c8475">step →</text><text x="102" y="207" font-family="Georgia, &#39;Songti SC&#39;, &#39;Source Han Serif SC&#39;, &#39;Noto Serif CJK SC&#39;, STSong, serif" font-style="italic" font-size="13" fill="#8c8475">score ↑</text><rect x="480.7" y="216" width="75.3" height="196" fill="#a86b46" opacity="0.07"></rect><path d="M100.0 383.2 C100.7 383.0,102.8 382.6,104.2 382.2 C105.6 381.8,107.0 381.6,108.4 381.1 C109.8 380.5,111.2 379.5,112.6 378.8 C113.9 378.1,115.3 377.6,116.7 376.7 C118.1 375.8,119.5 374.7,120.9 373.5 C122.3 372.4,123.7 371.2,125.1 370.0 C126.5 368.8,127.9 367.8,129.3 366.6 C130.7 365.4,132.1 363.8,133.5 362.6 C134.9 361.3,136.3 360.5,137.7 359.2 C139.0 358.0,140.4 356.5,141.8 355.2 C143.2 353.9,144.6 352.5,146.0 351.2 C147.4 349.9,148.8 348.6,150.2 347.4 C151.6 346.3,153.0 345.5,154.4 344.4 C155.8 343.3,157.2 341.9,158.6 340.8 C160.0 339.6,161.4 338.6,162.8 337.4 C164.1 336.2,165.5 334.6,166.9 333.4 C168.3 332.2,169.7 331.4,171.1 330.3 C172.5 329.2,173.9 327.8,175.3 326.7 C176.7 325.5,178.1 324.3,179.5 323.2 C180.9 322.2,182.3 321.3,183.7 320.4 C185.1 319.6,186.5 318.9,187.9 318.0 C189.2 317.0,190.6 315.6,192.0 314.6 C193.4 313.7,194.8 313.0,196.2 312.1 C197.6 311.3,199.0 310.4,200.4 309.6 C201.8 308.8,203.2 308.1,204.6 307.3 C206.0 306.5,207.4 305.6,208.8 304.7 C210.2 303.7,211.6 302.4,213.0 301.5 C214.3 300.7,215.7 300.1,217.1 299.4 C218.5 298.8,219.9 298.4,221.3 297.6 C222.7 296.8,224.1 295.7,225.5 294.9 C226.9 294.1,228.3 293.6,229.7 293.0 C231.1 292.3,232.5 291.8,233.9 291.0 C235.3 290.3,236.7 289.1,238.1 288.5 C239.4 287.8,240.8 287.4,242.2 286.9 C243.6 286.4,245.0 285.7,246.4 285.2 C247.8 284.7,249.2 284.4,250.6 283.8 C252.0 283.2,253.4 282.3,254.8 281.7 C256.2 281.0,257.6 280.5,259.0 279.8 C260.4 279.2,261.8 278.5,263.2 277.9 C264.6 277.4,265.9 277.1,267.3 276.6 C268.7 276.1,270.1 275.4,271.5 274.9 C272.9 274.4,274.3 273.9,275.7 273.6 C277.1 273.2,278.5 273.2,279.9 272.8 C281.3 272.5,282.7 271.9,284.1 271.5 C285.5 271.1,286.9 270.6,288.3 270.3 C289.7 270.0,291.0 269.8,292.4 269.5 C293.8 269.1,295.2 268.5,296.6 268.1 C298.0 267.7,299.4 267.2,300.8 267.0 C302.2 266.8,303.6 266.9,305.0 266.6 C306.4 266.3,307.8 265.5,309.2 265.2 C310.6 264.8,312.0 264.7,313.4 264.5 C314.8 264.3,316.1 264.1,317.5 263.8 C318.9 263.5,320.3 262.8,321.7 262.5 C323.1 262.3,324.5 262.2,325.9 262.1 C327.3 261.9,328.7 261.9,330.1 261.7 C331.5 261.4,332.9 260.8,334.3 260.5 C335.7 260.2,337.1 260.4,338.5 260.1 C339.9 259.8,341.2 259.0,342.6 258.8 C344.0 258.6,345.4 258.8,346.8 258.8 C348.2 258.7,349.6 258.5,351.0 258.3 C352.4 258.0,353.8 257.5,355.2 257.3 C356.6 257.1,358.0 257.2,359.4 257.0 C360.8 256.8,362.2 256.3,363.6 256.2 C365.0 256.1,366.3 256.2,367.7 256.2 C369.1 256.1,370.5 256.2,371.9 256.0 C373.3 255.9,374.7 255.4,376.1 255.2 C377.5 254.9,378.9 254.7,380.3 254.6 C381.7 254.5,383.1 254.6,384.5 254.4 C385.9 254.2,387.3 253.5,388.7 253.4 C390.1 253.2,391.4 253.6,392.8 253.5 C394.2 253.4,395.6 253.0,397.0 252.7 C398.4 252.4,399.8 252.0,401.2 251.8 C402.6 251.6,404.0 251.8,405.4 251.7 C406.8 251.7,408.2 251.6,409.6 251.4 C411.0 251.2,412.4 250.9,413.8 250.7 C415.2 250.4,416.6 250.2,417.9 250.0 C419.3 249.9,420.7 249.9,422.1 249.8 C423.5 249.6,424.9 249.2,426.3 249.1 C427.7 248.9,429.1 248.8,430.5 248.7 C431.9 248.7,433.3 248.6,434.7 248.6 C436.1 248.7,437.5 248.9,438.9 249.0 C440.3 249.0,441.7 249.1,443.0 249.0 C444.4 249.0,445.8 248.8,447.2 248.8 C448.6 248.8,450.0 248.9,451.4 249.0 C452.8 249.0,454.2 249.1,455.6 249.0 C457.0 248.9,458.4 248.5,459.8 248.4 C461.2 248.4,462.6 248.6,464.0 248.7 C465.4 248.8,466.8 249.0,468.1 249.1 C469.5 249.1,470.9 249.2,472.3 249.1 C473.7 249.0,475.1 248.7,476.5 248.6 C477.9 248.5,479.3 248.4,480.7 248.4 C482.1 248.4,483.5 248.4,484.9 248.5 C486.3 248.6,487.7 248.9,489.1 249.0 C490.5 249.2,491.9 249.3,493.2 249.3 C494.6 249.2,496.0 248.8,497.4 248.8 C498.8 248.7,500.2 249.0,501.6 249.1 C503.0 249.1,504.4 249.0,505.8 248.9 C507.2 248.9,508.6 248.7,510.0 248.8 C511.4 248.9,512.8 249.4,514.2 249.5 C515.6 249.5,517.0 249.4,518.3 249.3 C519.7 249.2,521.1 249.0,522.5 249.0 C523.9 249.0,525.3 249.0,526.7 249.2 C528.1 249.3,529.5 249.7,530.9 249.9 C532.3 250.1,533.7 250.2,535.1 250.3 C536.5 250.4,537.9 250.5,539.3 250.6 C540.7 250.8,542.1 251.2,543.4 251.3 C544.8 251.5,546.2 251.6,547.6 251.5 C549.0 251.5,550.4 251.2,551.8 251.2 C553.2 251.2,555.3 251.6,556.0 251.6" fill="none" stroke="#6f7a55" stroke-width="2.6" stroke-linecap="round"></path><line x1="480.7" y1="216" x2="480.7" y2="412" stroke="#322e27" stroke-opacity="0.4" stroke-width="1" stroke-dasharray="2 4"></line><circle cx="480.7" cy="248.4" r="3.4" fill="#322e27"></circle><text x="480.697247706422" y="207" text-anchor="middle" font-family="Georgia, &#39;Songti SC&#39;, &#39;Source Han Serif SC&#39;, &#39;Noto Serif CJK SC&#39;, STSong, serif" font-style="italic" font-size="13.5" fill="#322e27">best_step</text><text x="518.3486238532109" y="400" text-anchor="middle" font-family="Georgia, &#39;Songti SC&#39;, &#39;Source Han Serif SC&#39;, &#39;Noto Serif CJK SC&#39;, STSong, serif" font-style="italic" font-size="13.5" fill="#a86b46">overtraining</text><text x="309.76" y="231.67999999999998" text-anchor="middle" font-family="Georgia, &#39;Songti SC&#39;, &#39;Source Han Serif SC&#39;, &#39;Noto Serif CJK SC&#39;, STSong, serif" font-style="italic" font-size="13.5" fill="#6f7a55">plateau · 平台期</text><text x="56" y="72" font-family="Georgia, &#39;Songti SC&#39;, &#39;Source Han Serif SC&#39;, &#39;Noto Serif CJK SC&#39;, STSong, serif" font-size="12" letter-spacing="2.4" fill="#8c8475">FIG. 06 · LEARNING-CURVE STATS</text><text x="56" y="112" font-family="Georgia, &#39;Songti SC&#39;, &#39;Source Han Serif SC&#39;, &#39;Noto Serif CJK SC&#39;, STSong, serif" font-size="31" fill="#322e27"><tspan font-style="italic">Plateau</tspan><tspan fill="#8c8475"> · </tspan><tspan>平台期</tspan></text><text x="56" y="150" font-family="Georgia, &#39;Songti SC&#39;, &#39;Source Han Serif SC&#39;, &#39;Noto Serif CJK SC&#39;, STSong, serif" font-style="italic" font-size="18.5" fill="#322e27" opacity="0.82">在何处,该学会停下？</text><text x="56" y="174" font-family="Georgia, &#39;Songti SC&#39;, &#39;Source Han Serif SC&#39;, &#39;Noto Serif CJK SC&#39;, STSong, serif" font-style="italic" font-size="13.5" fill="#8c8475">Where does one learn to stop?</text><line x1="606" y1="74" x2="606" y2="436" stroke="#322e27" stroke-opacity="0.20" stroke-width="1"></line><text x="636" y="100" font-family="Georgia, &#39;Songti SC&#39;, &#39;Source Han Serif SC&#39;, &#39;Noto Serif CJK SC&#39;, STSong, serif" font-size="12" letter-spacing="2.4" fill="#8c8475">AI 由此读出</text><text x="636" y="146" font-family="Georgia, &#39;Songti SC&#39;, &#39;Source Han Serif SC&#39;, &#39;Noto Serif CJK SC&#39;, STSong, serif" font-size="16" fill="#6f7a55">—</text><text x="660" y="146" font-family="Georgia, &#39;Songti SC&#39;, &#39;Source Han Serif SC&#39;, &#39;Noto Serif CJK SC&#39;, STSong, serif" font-size="16" fill="#322e27">找到收益开始变小的步数</text><text x="636" y="190" font-family="Georgia, &#39;Songti SC&#39;, &#39;Source Han Serif SC&#39;, &#39;Noto Serif CJK SC&#39;, STSong, serif" font-size="16" fill="#6f7a55">—</text><text x="660" y="190" font-family="Georgia, &#39;Songti SC&#39;, &#39;Source Han Serif SC&#39;, &#39;Noto Serif CJK SC&#39;, STSong, serif" font-size="16" fill="#322e27">best_step:应回滚的最佳 checkpoint</text><text x="636" y="234" font-family="Georgia, &#39;Songti SC&#39;, &#39;Source Han Serif SC&#39;, &#39;Noto Serif CJK SC&#39;, STSong, serif" font-size="16" fill="#6f7a55">—</text><text x="660" y="234" font-family="Georgia, &#39;Songti SC&#39;, &#39;Source Han Serif SC&#39;, &#39;Noto Serif CJK SC&#39;, STSong, serif" font-size="16" fill="#322e27">overtraining:峰值之后的徒劳</text><text x="72" y="454" font-family="Georgia, &#39;Songti SC&#39;, &#39;Source Han Serif SC&#39;, &#39;Noto Serif CJK SC&#39;, STSong, serif" font-style="italic" font-size="13" fill="#8c8475">plateau_detected / best_step / overtraining_steps</text>
</svg>