<svg width="1000" height="480" viewBox="0 0 1000 480" xmlns="http://www.w3.org/2000/svg" role="img">
<rect width="1000" height="480" fill="#f4f0e7"></rect><rect x="18" y="18" width="964" height="444" fill="none" stroke="#322e27" stroke-opacity="0.30" stroke-width="1"></rect><rect x="24" y="24" width="952" height="432" fill="none" stroke="#322e27" stroke-opacity="0.15" stroke-width="1"></rect>
<rect x="72" y="196" width="502" height="232" fill="#faf7ef" stroke="#322e27" stroke-opacity="0.13" stroke-width="1"></rect><line x1="100" y1="412" x2="556" y2="412" stroke="#322e27" stroke-opacity="0.42" stroke-width="1"></line><line x1="100" y1="216" x2="100" y2="412" stroke="#322e27" stroke-opacity="0.22" stroke-width="1"></line><text x="556" y="434" text-anchor="end" font-family="Georgia, &#39;Songti SC&#39;, &#39;Source Han Serif SC&#39;, &#39;Noto Serif CJK SC&#39;, STSong, serif" font-style="italic" font-size="13" fill="#8c8475">step →</text><text x="102" y="207" font-family="Georgia, &#39;Songti SC&#39;, &#39;Source Han Serif SC&#39;, &#39;Noto Serif CJK SC&#39;, STSong, serif" font-style="italic" font-size="13" fill="#8c8475">score ↑</text><path d="M100.0 373.8 L105.1 369.8 L110.2 365.9 L115.4 362.1 L120.5 358.5 L125.6 354.9 L130.7 351.5 L135.9 348.2 L141.0 345.1 L146.1 342.0 L151.2 339.0 L156.4 336.1 L161.5 333.4 L166.6 330.7 L171.7 328.1 L176.9 325.6 L182.0 323.1 L187.1 320.8 L192.2 318.5 L197.3 316.3 L202.5 314.2 L207.6 312.1 L212.7 310.1 L217.8 308.2 L223.0 306.4 L228.1 304.6 L233.2 302.8 L238.3 301.2 L243.5 299.5 L248.6 298.0 L253.7 296.5 L258.8 295.0 L264.0 293.6 L269.1 292.2 L274.2 290.9 L279.3 289.6 L284.4 288.4 L289.6 287.2 L294.7 286.0 L299.8 284.9 L304.9 283.8 L310.1 282.8 L315.2 281.8 L320.3 280.8 L325.4 279.8 L330.6 278.9 L335.7 278.0 L340.8 277.2 L345.9 276.4 L351.1 275.6 L356.2 274.8 L361.3 274.0 L366.4 273.3 L371.6 272.6 L376.7 271.9 L381.8 271.3 L386.9 270.7 L392.0 270.1 L397.2 269.5 L402.3 268.9 L407.4 268.3 L412.5 267.8 L417.7 267.3 L422.8 266.8 L427.9 266.3 L433.0 265.8 L438.2 265.4 L443.3 265.0 L448.4 264.5 L453.5 264.1 L458.7 263.7 L463.8 263.4 L468.9 263.0 L474.0 262.6 L479.1 262.3 L484.3 262.0 L489.4 261.6 L494.5 261.3 L499.6 261.0 L504.8 260.7 L509.9 260.5 L515.0 260.2 L520.1 259.9 L525.3 259.7 L530.4 259.4 L535.5 259.2 L540.6 259.0 L545.8 258.7 L550.9 258.5 L556.0 258.3 L556.0 279.9 L550.9 280.1 L545.8 280.3 L540.6 280.5 L535.5 280.7 L530.4 281.0 L525.3 281.2 L520.1 281.5 L515.0 281.7 L509.9 282.0 L504.8 282.3 L499.6 282.6 L494.5 282.9 L489.4 283.2 L484.3 283.5 L479.1 283.9 L474.0 284.2 L468.9 284.6 L463.8 284.9 L458.7 285.3 L453.5 285.7 L448.4 286.1 L443.3 286.5 L438.2 287.0 L433.0 287.4 L427.9 287.9 L422.8 288.4 L417.7 288.9 L412.5 289.4 L407.4 289.9 L402.3 290.5 L397.2 291.0 L392.0 291.6 L386.9 292.2 L381.8 292.9 L376.7 293.5 L371.6 294.2 L366.4 294.9 L361.3 295.6 L356.2 296.3 L351.1 297.1 L345.9 297.9 L340.8 298.7 L335.7 299.6 L330.6 300.5 L325.4 301.4 L320.3 302.3 L315.2 303.3 L310.1 304.3 L304.9 305.4 L299.8 306.5 L294.7 307.6 L289.6 308.7 L284.4 309.9 L279.3 311.2 L274.2 312.4 L269.1 313.8 L264.0 315.1 L258.8 316.6 L253.7 318.0 L248.6 319.5 L243.5 321.1 L238.3 322.7 L233.2 324.4 L228.1 326.1 L223.0 327.9 L217.8 329.8 L212.7 331.7 L207.6 333.7 L202.5 335.7 L197.3 337.9 L192.2 340.1 L187.1 342.3 L182.0 344.7 L176.9 347.1 L171.7 349.6 L166.6 352.2 L161.5 354.9 L156.4 357.7 L151.2 360.6 L146.1 363.5 L141.0 366.6 L135.9 369.8 L130.7 373.1 L125.6 376.5 L120.5 380.0 L115.4 383.7 L110.2 387.4 L105.1 391.3 L100.0 395.3 Z" fill="#8c8475" opacity="0.18"></path><path d="M100.0 374.8 L105.1 369.9 L110.2 365.3 L115.4 360.8 L120.5 356.4 L125.6 352.2 L130.7 348.1 L135.9 344.2 L141.0 340.4 L146.1 336.8 L151.2 333.3 L156.4 329.8 L161.5 326.6 L166.6 323.4 L171.7 320.3 L176.9 317.3 L182.0 314.5 L187.1 311.7 L192.2 309.0 L197.3 306.4 L202.5 304.0 L207.6 301.5 L212.7 299.2 L217.8 297.0 L223.0 294.8 L228.1 292.7 L233.2 290.7 L238.3 288.7 L243.5 286.9 L248.6 285.0 L253.7 283.3 L258.8 281.6 L264.0 279.9 L269.1 278.3 L274.2 276.8 L279.3 275.3 L284.4 273.9 L289.6 272.5 L294.7 271.2 L299.8 269.9 L304.9 268.7 L310.1 267.5 L315.2 266.3 L320.3 265.2 L325.4 264.1 L330.6 263.1 L335.7 262.1 L340.8 261.1 L345.9 260.2 L351.1 259.2 L356.2 258.4 L361.3 257.5 L366.4 256.7 L371.6 255.9 L376.7 255.2 L381.8 254.4 L386.9 253.7 L392.0 253.0 L397.2 252.4 L402.3 251.7 L407.4 251.1 L412.5 250.5 L417.7 249.9 L422.8 249.4 L427.9 248.8 L433.0 248.3 L438.2 247.8 L443.3 247.3 L448.4 246.9 L453.5 246.4 L458.7 246.0 L463.8 245.5 L468.9 245.1 L474.0 244.7 L479.1 244.4 L484.3 244.0 L489.4 243.6 L494.5 243.3 L499.6 243.0 L504.8 242.6 L509.9 242.3 L515.0 242.0 L520.1 241.8 L525.3 241.5 L530.4 241.2 L535.5 240.9 L540.6 240.7 L545.8 240.5 L550.9 240.2 L556.0 240.0 L556.0 259.6 L550.9 259.8 L545.8 260.1 L540.6 260.3 L535.5 260.5 L530.4 260.8 L525.3 261.1 L520.1 261.4 L515.0 261.6 L509.9 261.9 L504.8 262.2 L499.6 262.6 L494.5 262.9 L489.4 263.2 L484.3 263.6 L479.1 264.0 L474.0 264.3 L468.9 264.7 L463.8 265.1 L458.7 265.6 L453.5 266.0 L448.4 266.5 L443.3 266.9 L438.2 267.4 L433.0 267.9 L427.9 268.4 L422.8 269.0 L417.7 269.5 L412.5 270.1 L407.4 270.7 L402.3 271.3 L397.2 272.0 L392.0 272.6 L386.9 273.3 L381.8 274.0 L376.7 274.8 L371.6 275.5 L366.4 276.3 L361.3 277.1 L356.2 278.0 L351.1 278.8 L345.9 279.8 L340.8 280.7 L335.7 281.7 L330.6 282.7 L325.4 283.7 L320.3 284.8 L315.2 285.9 L310.1 287.1 L304.9 288.3 L299.8 289.5 L294.7 290.8 L289.6 292.1 L284.4 293.5 L279.3 294.9 L274.2 296.4 L269.1 297.9 L264.0 299.5 L258.8 301.2 L253.7 302.9 L248.6 304.6 L243.5 306.5 L238.3 308.3 L233.2 310.3 L228.1 312.3 L223.0 314.4 L217.8 316.6 L212.7 318.8 L207.6 321.1 L202.5 323.6 L197.3 326.0 L192.2 328.6 L187.1 331.3 L182.0 334.1 L176.9 336.9 L171.7 339.9 L166.6 343.0 L161.5 346.2 L156.4 349.4 L151.2 352.9 L146.1 356.4 L141.0 360.0 L135.9 363.8 L130.7 367.7 L125.6 371.8 L120.5 376.0 L115.4 380.4 L110.2 384.9 L105.1 389.5 L100.0 394.4 Z" fill="#4d6373" opacity="0.15"></path><path d="M100.0 384.6 C100.9 383.9,103.4 381.9,105.1 380.5 C106.8 379.2,108.5 377.9,110.2 376.6 C112.0 375.4,113.7 374.1,115.4 372.9 C117.1 371.6,118.8 370.4,120.5 369.2 C122.2 368.0,123.9 366.9,125.6 365.7 C127.3 364.6,129.0 363.4,130.7 362.3 C132.4 361.2,134.2 360.1,135.9 359.0 C137.6 357.9,139.3 356.9,141.0 355.8 C142.7 354.8,144.4 353.8,146.1 352.8 C147.8 351.8,149.5 350.8,151.2 349.8 C152.9 348.8,154.7 347.9,156.4 346.9 C158.1 346.0,159.8 345.0,161.5 344.1 C163.2 343.2,164.9 342.3,166.6 341.4 C168.3 340.6,170.0 339.7,171.7 338.8 C173.4 338.0,175.1 337.2,176.9 336.3 C178.6 335.5,180.3 334.7,182.0 333.9 C183.7 333.1,185.4 332.3,187.1 331.6 C188.8 330.8,190.5 330.0,192.2 329.3 C193.9 328.5,195.6 327.8,197.3 327.1 C199.1 326.4,200.8 325.7,202.5 325.0 C204.2 324.3,205.9 323.6,207.6 322.9 C209.3 322.2,211.0 321.6,212.7 320.9 C214.4 320.3,216.1 319.6,217.8 319.0 C219.6 318.4,221.3 317.8,223.0 317.2 C224.7 316.5,226.4 315.9,228.1 315.4 C229.8 314.8,231.5 314.2,233.2 313.6 C234.9 313.1,236.6 312.5,238.3 311.9 C240.0 311.4,241.8 310.9,243.5 310.3 C245.2 309.8,246.9 309.3,248.6 308.8 C250.3 308.2,252.0 307.7,253.7 307.2 C255.4 306.7,257.1 306.3,258.8 305.8 C260.5 305.3,262.2 304.8,264.0 304.4 C265.7 303.9,267.4 303.4,269.1 303.0 C270.8 302.5,272.5 302.1,274.2 301.7 C275.9 301.2,277.6 300.8,279.3 300.4 C281.0 300.0,282.7 299.6,284.4 299.2 C286.2 298.7,287.9 298.3,289.6 298.0 C291.3 297.6,293.0 297.2,294.7 296.8 C296.4 296.4,298.1 296.0,299.8 295.7 C301.5 295.3,303.2 295.0,304.9 294.6 C306.7 294.2,308.4 293.9,310.1 293.6 C311.8 293.2,313.5 292.9,315.2 292.5 C316.9 292.2,318.6 291.9,320.3 291.6 C322.0 291.2,323.7 290.9,325.4 290.6 C327.1 290.3,328.9 290.0,330.6 289.7 C332.3 289.4,334.0 289.1,335.7 288.8 C337.4 288.5,339.1 288.2,340.8 288.0 C342.5 287.7,344.2 287.4,345.9 287.1 C347.6 286.9,349.3 286.6,351.1 286.3 C352.8 286.1,354.5 285.8,356.2 285.6 C357.9 285.3,359.6 285.1,361.3 284.8 C363.0 284.6,364.7 284.3,366.4 284.1 C368.1 283.9,369.8 283.6,371.6 283.4 C373.3 283.2,375.0 282.9,376.7 282.7 C378.4 282.5,380.1 282.3,381.8 282.1 C383.5 281.9,385.2 281.6,386.9 281.4 C388.6 281.2,390.3 281.0,392.0 280.8 C393.8 280.6,395.5 280.4,397.2 280.2 C398.9 280.0,400.6 279.9,402.3 279.7 C404.0 279.5,405.7 279.3,407.4 279.1 C409.1 278.9,410.8 278.8,412.5 278.6 C414.2 278.4,416.0 278.2,417.7 278.1 C419.4 277.9,421.1 277.7,422.8 277.6 C424.5 277.4,426.2 277.3,427.9 277.1 C429.6 276.9,431.3 276.8,433.0 276.6 C434.7 276.5,436.4 276.3,438.2 276.2 C439.9 276.0,441.6 275.9,443.3 275.7 C445.0 275.6,446.7 275.5,448.4 275.3 C450.1 275.2,451.8 275.0,453.5 274.9 C455.2 274.8,456.9 274.6,458.7 274.5 C460.4 274.4,462.1 274.3,463.8 274.1 C465.5 274.0,467.2 273.9,468.9 273.8 C470.6 273.7,472.3 273.5,474.0 273.4 C475.7 273.3,477.4 273.2,479.1 273.1 C480.9 273.0,482.6 272.8,484.3 272.7 C486.0 272.6,487.7 272.5,489.4 272.4 C491.1 272.3,492.8 272.2,494.5 272.1 C496.2 272.0,497.9 271.9,499.6 271.8 C501.3 271.7,503.1 271.6,504.8 271.5 C506.5 271.4,508.2 271.3,509.9 271.2 C511.6 271.1,513.3 271.1,515.0 271.0 C516.7 270.9,518.4 270.8,520.1 270.7 C521.8 270.6,523.6 270.5,525.3 270.4 C527.0 270.4,528.7 270.3,530.4 270.2 C532.1 270.1,533.8 270.0,535.5 270.0 C537.2 269.9,538.9 269.8,540.6 269.7 C542.3 269.7,544.0 269.6,545.8 269.5 C547.5 269.4,549.2 269.4,550.9 269.3 C552.6 269.2,555.1 269.1,556.0 269.1" fill="none" stroke="#8c8475" stroke-width="2" stroke-linecap="round"></path><path d="M100.0 384.6 C100.9 383.8,103.4 381.3,105.1 379.7 C106.8 378.1,108.5 376.6,110.2 375.1 C112.0 373.5,113.7 372.0,115.4 370.6 C117.1 369.1,118.8 367.6,120.5 366.2 C122.2 364.8,123.9 363.4,125.6 362.0 C127.3 360.6,129.0 359.3,130.7 357.9 C132.4 356.6,134.2 355.3,135.9 354.0 C137.6 352.7,139.3 351.5,141.0 350.2 C142.7 349.0,144.4 347.8,146.1 346.6 C147.8 345.4,149.5 344.2,151.2 343.1 C152.9 341.9,154.7 340.8,156.4 339.6 C158.1 338.5,159.8 337.4,161.5 336.4 C163.2 335.3,164.9 334.2,166.6 333.2 C168.3 332.1,170.0 331.1,171.7 330.1 C173.4 329.1,175.1 328.1,176.9 327.1 C178.6 326.2,180.3 325.2,182.0 324.3 C183.7 323.3,185.4 322.4,187.1 321.5 C188.8 320.6,190.5 319.7,192.2 318.8 C193.9 318.0,195.6 317.1,197.3 316.2 C199.1 315.4,200.8 314.6,202.5 313.8 C204.2 312.9,205.9 312.1,207.6 311.3 C209.3 310.6,211.0 309.8,212.7 309.0 C214.4 308.3,216.1 307.5,217.8 306.8 C219.6 306.0,221.3 305.3,223.0 304.6 C224.7 303.9,226.4 303.2,228.1 302.5 C229.8 301.8,231.5 301.2,233.2 300.5 C234.9 299.8,236.6 299.2,238.3 298.5 C240.0 297.9,241.8 297.3,243.5 296.7 C245.2 296.0,246.9 295.4,248.6 294.8 C250.3 294.2,252.0 293.6,253.7 293.1 C255.4 292.5,257.1 291.9,258.8 291.4 C260.5 290.8,262.2 290.3,264.0 289.7 C265.7 289.2,267.4 288.7,269.1 288.1 C270.8 287.6,272.5 287.1,274.2 286.6 C275.9 286.1,277.6 285.6,279.3 285.1 C281.0 284.7,282.7 284.2,284.4 283.7 C286.2 283.2,287.9 282.8,289.6 282.3 C291.3 281.9,293.0 281.4,294.7 281.0 C296.4 280.6,298.1 280.1,299.8 279.7 C301.5 279.3,303.2 278.9,304.9 278.5 C306.7 278.1,308.4 277.7,310.1 277.3 C311.8 276.9,313.5 276.5,315.2 276.1 C316.9 275.7,318.6 275.4,320.3 275.0 C322.0 274.6,323.7 274.3,325.4 273.9 C327.1 273.6,328.9 273.2,330.6 272.9 C332.3 272.5,334.0 272.2,335.7 271.9 C337.4 271.5,339.1 271.2,340.8 270.9 C342.5 270.6,344.2 270.3,345.9 270.0 C347.6 269.6,349.3 269.3,351.1 269.0 C352.8 268.7,354.5 268.5,356.2 268.2 C357.9 267.9,359.6 267.6,361.3 267.3 C363.0 267.0,364.7 266.8,366.4 266.5 C368.1 266.2,369.8 266.0,371.6 265.7 C373.3 265.5,375.0 265.2,376.7 265.0 C378.4 264.7,380.1 264.5,381.8 264.2 C383.5 264.0,385.2 263.7,386.9 263.5 C388.6 263.3,390.3 263.0,392.0 262.8 C393.8 262.6,395.5 262.4,397.2 262.2 C398.9 261.9,400.6 261.7,402.3 261.5 C404.0 261.3,405.7 261.1,407.4 260.9 C409.1 260.7,410.8 260.5,412.5 260.3 C414.2 260.1,416.0 259.9,417.7 259.7 C419.4 259.5,421.1 259.3,422.8 259.2 C424.5 259.0,426.2 258.8,427.9 258.6 C429.6 258.4,431.3 258.3,433.0 258.1 C434.7 257.9,436.4 257.8,438.2 257.6 C439.9 257.4,441.6 257.3,443.3 257.1 C445.0 257.0,446.7 256.8,448.4 256.7 C450.1 256.5,451.8 256.3,453.5 256.2 C455.2 256.1,456.9 255.9,458.7 255.8 C460.4 255.6,462.1 255.5,463.8 255.3 C465.5 255.2,467.2 255.1,468.9 254.9 C470.6 254.8,472.3 254.7,474.0 254.5 C475.7 254.4,477.4 254.3,479.1 254.2 C480.9 254.0,482.6 253.9,484.3 253.8 C486.0 253.7,487.7 253.6,489.4 253.4 C491.1 253.3,492.8 253.2,494.5 253.1 C496.2 253.0,497.9 252.9,499.6 252.8 C501.3 252.7,503.1 252.6,504.8 252.4 C506.5 252.3,508.2 252.2,509.9 252.1 C511.6 252.0,513.3 251.9,515.0 251.8 C516.7 251.7,518.4 251.6,520.1 251.6 C521.8 251.5,523.6 251.4,525.3 251.3 C527.0 251.2,528.7 251.1,530.4 251.0 C532.1 250.9,533.8 250.8,535.5 250.7 C537.2 250.7,538.9 250.6,540.6 250.5 C542.3 250.4,544.0 250.3,545.8 250.3 C547.5 250.2,549.2 250.1,550.9 250.0 C552.6 249.9,555.1 249.8,556.0 249.8" fill="none" stroke="#4d6373" stroke-width="2.6" stroke-linecap="round"></path><text x="537.76" y="238.6366136734862" text-anchor="end" font-family="Georgia, &#39;Songti SC&#39;, &#39;Source Han Serif SC&#39;, &#39;Noto Serif CJK SC&#39;, STSong, serif" font-style="italic" font-size="13.5" fill="#4d6373">方法均值 ± CI</text><text x="537.76" y="289.861496379604" text-anchor="end" font-family="Georgia, &#39;Songti SC&#39;, &#39;Source Han Serif SC&#39;, &#39;Noto Serif CJK SC&#39;, STSong, serif" font-style="italic" font-size="13.5" fill="#8c8475">baseline</text><text x="56" y="72" font-family="Georgia, &#39;Songti SC&#39;, &#39;Source Han Serif SC&#39;, &#39;Noto Serif CJK SC&#39;, STSong, serif" font-size="12" letter-spacing="2.4" fill="#8c8475">图 08 · 学习曲线统计</text><text x="56" y="112" font-family="Georgia, &#39;Songti SC&#39;, &#39;Source Han Serif SC&#39;, &#39;Noto Serif CJK SC&#39;, STSong, serif" font-size="31" fill="#322e27"><tspan>多 seed</tspan><tspan fill="#8c8475"> · </tspan><tspan font-style="italic">Multi-seed</tspan></text><text x="56" y="150" font-family="Georgia, &#39;Songti SC&#39;, &#39;Source Han Serif SC&#39;, &#39;Noto Serif CJK SC&#39;, STSong, serif" font-style="italic" font-size="18.5" fill="#322e27" opacity="0.82">规律，还是侥幸？</text><text x="56" y="174" font-family="Georgia, &#39;Songti SC&#39;, &#39;Source Han Serif SC&#39;, &#39;Noto Serif CJK SC&#39;, STSong, serif" font-style="italic" font-size="13.5" fill="#8c8475">是真规律，还是一次运气？</text><line x1="606" y1="74" x2="606" y2="436" stroke="#322e27" stroke-opacity="0.20" stroke-width="1"></line><text x="636" y="100" font-family="Georgia, &#39;Songti SC&#39;, &#39;Source Han Serif SC&#39;, &#39;Noto Serif CJK SC&#39;, STSong, serif" font-size="12" letter-spacing="2.4" fill="#8c8475">AI 由此读出</text><text x="636" y="146" font-family="Georgia, &#39;Songti SC&#39;, &#39;Source Han Serif SC&#39;, &#39;Noto Serif CJK SC&#39;, STSong, serif" font-size="16" fill="#4d6373">—</text><text x="660" y="146" font-family="Georgia, &#39;Songti SC&#39;, &#39;Source Han Serif SC&#39;, &#39;Noto Serif CJK SC&#39;, STSong, serif" font-size="16" fill="#322e27"><tspan x="660" dy="0">以 mean / std</tspan><tspan x="660" dy="22">跨 seed 聚合</tspan></text><text x="636" y="190" font-family="Georgia, &#39;Songti SC&#39;, &#39;Source Han Serif SC&#39;, &#39;Noto Serif CJK SC&#39;, STSong, serif" font-size="16" fill="#4d6373">—</text><text x="660" y="190" font-family="Georgia, &#39;Songti SC&#39;, &#39;Source Han Serif SC&#39;, &#39;Noto Serif CJK SC&#39;, STSong, serif" font-size="16" fill="#322e27"><tspan x="660" dy="0">置信区间判断</tspan><tspan x="660" dy="22">是否真胜 baseline</tspan></text><text x="636" y="234" font-family="Georgia, &#39;Songti SC&#39;, &#39;Source Han Serif SC&#39;, &#39;Noto Serif CJK SC&#39;, STSong, serif" font-size="16" fill="#4d6373">—</text><text x="660" y="234" font-family="Georgia, &#39;Songti SC&#39;, &#39;Source Han Serif SC&#39;, &#39;Noto Serif CJK SC&#39;, STSong, serif" font-size="16" fill="#322e27"><tspan x="660" dy="0">提升小于 seed 方差，</tspan><tspan x="660" dy="22">则不足为信</tspan></text><text x="72" y="454" font-family="Georgia, &#39;Songti SC&#39;, &#39;Source Han Serif SC&#39;, &#39;Noto Serif CJK SC&#39;, STSong, serif" font-style="italic" font-size="13" fill="#8c8475"><tspan x="72" dy="0">mean_curve / std_curve</tspan><tspan x="72" dy="18">confidence_interval</tspan></text>
</svg>