<svg width="1000" height="480" viewBox="0 0 1000 480" xmlns="http://www.w3.org/2000/svg" role="img">
<rect width="1000" height="480" fill="#f4f0e7"></rect><rect x="18" y="18" width="964" height="444" fill="none" stroke="#322e27" stroke-opacity="0.30" stroke-width="1"></rect><rect x="24" y="24" width="952" height="432" fill="none" stroke="#322e27" stroke-opacity="0.15" stroke-width="1"></rect>
<rect x="72" y="196" width="502" height="232" fill="#faf7ef" stroke="#322e27" stroke-opacity="0.13" stroke-width="1"></rect><line x1="100" y1="412" x2="556" y2="412" stroke="#322e27" stroke-opacity="0.42" stroke-width="1"></line><line x1="100" y1="216" x2="100" y2="412" stroke="#322e27" stroke-opacity="0.22" stroke-width="1"></line><text x="556" y="434" text-anchor="end" font-family="Georgia, &#39;Songti SC&#39;, &#39;Source Han Serif SC&#39;, &#39;Noto Serif CJK SC&#39;, STSong, serif" font-style="italic" font-size="13" fill="#8c8475">step →</text><text x="102" y="207" font-family="Georgia, &#39;Songti SC&#39;, &#39;Source Han Serif SC&#39;, &#39;Noto Serif CJK SC&#39;, STSong, serif" font-style="italic" font-size="13" fill="#8c8475">score ↑</text><path d="M100.0 388.5 C100.9 387.7,103.4 385.2,105.1 383.7 C106.8 382.1,108.5 380.5,110.2 379.0 C112.0 377.5,113.7 376.0,115.4 374.5 C117.1 373.1,118.8 371.6,120.5 370.2 C122.2 368.8,123.9 367.4,125.6 366.0 C127.3 364.6,129.0 363.3,130.7 361.9 C132.4 360.6,134.2 359.3,135.9 358.0 C137.6 356.7,139.3 355.4,141.0 354.2 C142.7 353.0,144.4 351.7,146.1 350.5 C147.8 349.3,149.5 348.1,151.2 347.0 C152.9 345.8,154.7 344.7,156.4 343.5 C158.1 342.4,159.8 341.3,161.5 340.2 C163.2 339.1,164.9 338.1,166.6 337.0 C168.3 336.0,170.0 334.9,171.7 333.9 C173.4 332.9,175.1 331.9,176.9 330.9 C178.6 329.9,180.3 329.0,182.0 328.0 C183.7 327.1,185.4 326.1,187.1 325.2 C188.8 324.3,190.5 323.4,192.2 322.5 C193.9 321.6,195.6 320.7,197.3 319.9 C199.1 319.0,200.8 318.2,202.5 317.4 C204.2 316.5,205.9 315.7,207.6 314.9 C209.3 314.1,211.0 313.3,212.7 312.5 C214.4 311.8,216.1 311.0,217.8 310.2 C219.6 309.5,221.3 308.8,223.0 308.0 C224.7 307.3,226.4 306.6,228.1 305.9 C229.8 305.2,231.5 304.5,233.2 303.8 C234.9 303.1,236.6 302.5,238.3 301.8 C240.0 301.2,241.8 300.5,243.5 299.9 C245.2 299.2,246.9 298.6,248.6 298.0 C250.3 297.4,252.0 296.8,253.7 296.2 C255.4 295.6,257.1 295.0,258.8 294.5 C260.5 293.9,262.2 293.3,264.0 292.8 C265.7 292.2,267.4 291.7,269.1 291.1 C270.8 290.6,272.5 290.1,274.2 289.5 C275.9 289.0,277.6 288.5,279.3 288.0 C281.0 287.5,282.7 287.0,284.4 286.5 C286.2 286.1,287.9 285.6,289.6 285.1 C291.3 284.6,293.0 284.2,294.7 283.7 C296.4 283.3,298.1 282.8,299.8 282.4 C301.5 282.0,303.2 281.5,304.9 281.1 C306.7 280.7,308.4 280.3,310.1 279.9 C311.8 279.4,313.5 279.0,315.2 278.6 C316.9 278.3,318.6 277.9,320.3 277.5 C322.0 277.1,323.7 276.7,325.4 276.4 C327.1 276.0,328.9 275.6,330.6 275.3 C332.3 274.9,334.0 274.6,335.7 274.2 C337.4 273.9,339.1 273.5,340.8 273.2 C342.5 272.9,344.2 272.5,345.9 272.2 C347.6 271.9,349.3 271.6,351.1 271.2 C352.8 270.9,354.5 270.6,356.2 270.3 C357.9 270.0,359.6 269.7,361.3 269.4 C363.0 269.1,364.7 268.9,366.4 268.6 C368.1 268.3,369.8 268.0,371.6 267.7 C373.3 267.5,375.0 267.2,376.7 266.9 C378.4 266.7,380.1 266.4,381.8 266.2 C383.5 265.9,385.2 265.7,386.9 265.4 C388.6 265.2,390.3 264.9,392.0 264.7 C393.8 264.4,395.5 264.2,397.2 264.0 C398.9 263.7,400.6 263.5,402.3 263.3 C404.0 263.1,405.7 262.8,407.4 262.6 C409.1 262.4,410.8 262.2,412.5 262.0 C414.2 261.8,416.0 261.6,417.7 261.4 C419.4 261.2,421.1 261.0,422.8 260.8 C424.5 260.6,426.2 260.4,427.9 260.2 C429.6 260.0,431.3 259.8,433.0 259.7 C434.7 259.5,436.4 259.3,438.2 259.1 C439.9 258.9,441.6 258.8,443.3 258.6 C445.0 258.4,446.7 258.3,448.4 258.1 C450.1 257.9,451.8 257.8,453.5 257.6 C455.2 257.5,456.9 257.3,458.7 257.1 C460.4 257.0,462.1 256.8,463.8 256.7 C465.5 256.5,467.2 256.4,468.9 256.2 C470.6 256.1,472.3 256.0,474.0 255.8 C475.7 255.7,477.4 255.5,479.1 255.4 C480.9 255.3,482.6 255.1,484.3 255.0 C486.0 254.9,487.7 254.8,489.4 254.6 C491.1 254.5,492.8 254.4,494.5 254.3 C496.2 254.1,497.9 254.0,499.6 253.9 C501.3 253.8,503.1 253.7,504.8 253.6 C506.5 253.4,508.2 253.3,509.9 253.2 C511.6 253.1,513.3 253.0,515.0 252.9 C516.7 252.8,518.4 252.7,520.1 252.6 C521.8 252.5,523.6 252.4,525.3 252.3 C527.0 252.2,528.7 252.1,530.4 252.0 C532.1 251.9,533.8 251.8,535.5 251.7 C537.2 251.6,538.9 251.5,540.6 251.4 C542.3 251.3,544.0 251.3,545.8 251.2 C547.5 251.1,549.2 251.0,550.9 250.9 C552.6 250.8,555.1 250.7,556.0 250.7" fill="none" stroke="#322e27" stroke-width="1.4" stroke-opacity="0.32" stroke-linecap="round"></path><line x1="109.12" y1="380.0" x2="218.56" y2="309.9" stroke="#6f7a55" stroke-width="2.6" stroke-linecap="round"></line><text x="163.84" y="332.98036791538453" text-anchor="middle" font-family="Georgia, &#39;Songti SC&#39;, &#39;Source Han Serif SC&#39;, &#39;Noto Serif CJK SC&#39;, STSong, serif" font-style="italic" font-size="13.5" fill="#6f7a55">early · steep</text><line x1="282.4" y1="287.1" x2="382.71999999999997" y2="266.0" stroke="#4d6373" stroke-width="2.6" stroke-linecap="round"></line><text x="332.55999999999995" y="264.5719834021601" text-anchor="middle" font-family="Georgia, &#39;Songti SC&#39;, &#39;Source Han Serif SC&#39;, &#39;Noto Serif CJK SC&#39;, STSong, serif" font-style="italic" font-size="13.5" fill="#4d6373">mid · slower</text><line x1="455.68" y1="257.4" x2="551.44" y2="250.9" stroke="#a8842f" stroke-width="2.6" stroke-linecap="round"></line><text x="503.56000000000006" y="242.14619638974614" text-anchor="middle" font-family="Georgia, &#39;Songti SC&#39;, &#39;Source Han Serif SC&#39;, &#39;Noto Serif CJK SC&#39;, STSong, serif" font-style="italic" font-size="13.5" fill="#a8842f">late ≈ 0</text><text x="56" y="72" font-family="Georgia, &#39;Songti SC&#39;, &#39;Source Han Serif SC&#39;, &#39;Noto Serif CJK SC&#39;, STSong, serif" font-size="12" letter-spacing="2.4" fill="#8c8475">FIG. 02 · LEARNING-CURVE STATS</text><text x="56" y="112" font-family="Georgia, &#39;Songti SC&#39;, &#39;Source Han Serif SC&#39;, &#39;Noto Serif CJK SC&#39;, STSong, serif" font-size="31" fill="#322e27"><tspan font-style="italic">Slope</tspan></text><text x="56" y="150" font-family="Georgia, &#39;Songti SC&#39;, &#39;Source Han Serif SC&#39;, &#39;Noto Serif CJK SC&#39;, STSong, serif" font-style="italic" font-size="18.5" fill="#322e27" opacity="0.82">Are we still making progress?</text><text x="56" y="174" font-family="Georgia, &#39;Songti SC&#39;, &#39;Source Han Serif SC&#39;, &#39;Noto Serif CJK SC&#39;, STSong, serif" font-style="italic" font-size="13.5" fill="#8c8475">Still making progress?</text><line x1="606" y1="74" x2="606" y2="436" stroke="#322e27" stroke-opacity="0.20" stroke-width="1"></line><text x="636" y="100" font-family="Georgia, &#39;Songti SC&#39;, &#39;Source Han Serif SC&#39;, &#39;Noto Serif CJK SC&#39;, STSong, serif" font-size="12" letter-spacing="2.4" fill="#8c8475">AGENT READS</text><text x="636" y="146" font-family="Georgia, &#39;Songti SC&#39;, &#39;Source Han Serif SC&#39;, &#39;Noto Serif CJK SC&#39;, STSong, serif" font-size="16" fill="#6f7a55">—</text><text x="660" y="146" font-family="Georgia, &#39;Songti SC&#39;, &#39;Source Han Serif SC&#39;, &#39;Noto Serif CJK SC&#39;, STSong, serif" font-size="16" fill="#322e27">slope &gt; 0: still learning</text><text x="636" y="190" font-family="Georgia, &#39;Songti SC&#39;, &#39;Source Han Serif SC&#39;, &#39;Noto Serif CJK SC&#39;, STSong, serif" font-size="16" fill="#6f7a55">—</text><text x="660" y="190" font-family="Georgia, &#39;Songti SC&#39;, &#39;Source Han Serif SC&#39;, &#39;Noto Serif CJK SC&#39;, STSong, serif" font-size="16" fill="#322e27">slope ≈ 0: plateaued</text><text x="636" y="234" font-family="Georgia, &#39;Songti SC&#39;, &#39;Source Han Serif SC&#39;, &#39;Noto Serif CJK SC&#39;, STSong, serif" font-size="16" fill="#6f7a55">—</text><text x="660" y="234" font-family="Georgia, &#39;Songti SC&#39;, &#39;Source Han Serif SC&#39;, &#39;Noto Serif CJK SC&#39;, STSong, serif" font-size="16" fill="#322e27">slope &lt; 0: metric is worsening</text><text x="636" y="278" font-family="Georgia, &#39;Songti SC&#39;, &#39;Source Han Serif SC&#39;, &#39;Noto Serif CJK SC&#39;, STSong, serif" font-size="16" fill="#6f7a55">—</text><text x="660" y="278" font-family="Georgia, &#39;Songti SC&#39;, &#39;Source Han Serif SC&#39;, &#39;Noto Serif CJK SC&#39;, STSong, serif" font-size="16" fill="#322e27"><tspan x="660" dy="0">Compare early, mid,</tspan><tspan x="660" dy="22">and late windows</tspan></text><text x="72" y="454" font-family="Georgia, &#39;Songti SC&#39;, &#39;Source Han Serif SC&#39;, &#39;Noto Serif CJK SC&#39;, STSong, serif" font-style="italic" font-size="13" fill="#8c8475"><tspan x="72" dy="0">slope = d(score) ∕ d(step)</tspan><tspan x="72" dy="18">window regression</tspan></text>
</svg>