<svg width="1000" height="480" viewBox="0 0 1000 480" xmlns="http://www.w3.org/2000/svg" role="img">
<rect width="1000" height="480" fill="#f4f0e7"></rect><rect x="18" y="18" width="964" height="444" fill="none" stroke="#322e27" stroke-opacity="0.30" stroke-width="1"></rect><rect x="24" y="24" width="952" height="432" fill="none" stroke="#322e27" stroke-opacity="0.15" stroke-width="1"></rect>
<rect x="72" y="196" width="502" height="232" fill="#faf7ef" stroke="#322e27" stroke-opacity="0.13" stroke-width="1"></rect><line x1="100" y1="412" x2="556" y2="412" stroke="#322e27" stroke-opacity="0.42" stroke-width="1"></line><line x1="100" y1="216" x2="100" y2="412" stroke="#322e27" stroke-opacity="0.22" stroke-width="1"></line><text x="556" y="434" text-anchor="end" font-family="Georgia, &#39;Songti SC&#39;, &#39;Source Han Serif SC&#39;, &#39;Noto Serif CJK SC&#39;, STSong, serif" font-style="italic" font-size="13" fill="#8c8475">step →</text><text x="102" y="207" font-family="Georgia, &#39;Songti SC&#39;, &#39;Source Han Serif SC&#39;, &#39;Noto Serif CJK SC&#39;, STSong, serif" font-style="italic" font-size="13" fill="#8c8475">score ↑</text><path d="M100.0 385.8 C100.9 385.7,103.4 385.6,105.1 385.5 C106.8 385.4,108.5 385.3,110.2 385.2 C112.0 385.1,113.7 384.9,115.4 384.8 C117.1 384.7,118.8 384.6,120.5 384.5 C122.2 384.3,123.9 384.2,125.6 384.0 C127.3 383.9,129.0 383.7,130.7 383.6 C132.4 383.4,134.2 383.3,135.9 383.1 C137.6 382.9,139.3 382.7,141.0 382.5 C142.7 382.3,144.4 382.1,146.1 381.9 C147.8 381.7,149.5 381.5,151.2 381.3 C152.9 381.0,154.7 380.8,156.4 380.5 C158.1 380.3,159.8 380.0,161.5 379.7 C163.2 379.5,164.9 379.2,166.6 378.9 C168.3 378.6,170.0 378.2,171.7 377.9 C173.4 377.6,175.1 377.2,176.9 376.9 C178.6 376.5,180.3 376.2,182.0 375.8 C183.7 375.4,185.4 375.0,187.1 374.5 C188.8 374.1,190.5 373.7,192.2 373.2 C193.9 372.7,195.6 372.3,197.3 371.8 C199.1 371.3,200.8 370.8,202.5 370.2 C204.2 369.7,205.9 369.1,207.6 368.5 C209.3 368.0,211.0 367.4,212.7 366.7 C214.4 366.1,216.1 365.5,217.8 364.8 C219.6 364.1,221.3 363.4,223.0 362.7 C224.7 362.0,226.4 361.3,228.1 360.5 C229.8 359.8,231.5 359.0,233.2 358.2 C234.9 357.4,236.6 356.5,238.3 355.7 C240.0 354.8,241.8 353.9,243.5 353.0 C245.2 352.1,246.9 351.2,248.6 350.2 C250.3 349.3,252.0 348.3,253.7 347.3 C255.4 346.3,257.1 345.3,258.8 344.3 C260.5 343.3,262.2 342.2,264.0 341.1 C265.7 340.0,267.4 339.0,269.1 337.8 C270.8 336.7,272.5 335.6,274.2 334.5 C275.9 333.3,277.6 332.2,279.3 331.0 C281.0 329.8,282.7 328.6,284.4 327.4 C286.2 326.3,287.9 325.1,289.6 323.8 C291.3 322.6,293.0 321.4,294.7 320.2 C296.4 319.0,298.1 317.8,299.8 316.5 C301.5 315.3,303.2 314.1,304.9 312.9 C306.7 311.7,308.4 310.4,310.1 309.2 C311.8 308.0,313.5 306.8,315.2 305.6 C316.9 304.4,318.6 303.2,320.3 302.1 C322.0 300.9,323.7 299.7,325.4 298.6 C327.1 297.4,328.9 296.3,330.6 295.1 C332.3 294.0,334.0 292.9,335.7 291.8 C337.4 290.7,339.1 289.7,340.8 288.6 C342.5 287.6,344.2 286.6,345.9 285.5 C347.6 284.5,349.3 283.6,351.1 282.6 C352.8 281.6,354.5 280.7,356.2 279.8 C357.9 278.8,359.6 278.0,361.3 277.1 C363.0 276.2,364.7 275.4,366.4 274.5 C368.1 273.7,369.8 272.9,371.6 272.1 C373.3 271.4,375.0 270.6,376.7 269.9 C378.4 269.2,380.1 268.5,381.8 267.8 C383.5 267.1,385.2 266.4,386.9 265.8 C388.6 265.2,390.3 264.5,392.0 263.9 C393.8 263.3,395.5 262.8,397.2 262.2 C398.9 261.7,400.6 261.1,402.3 260.6 C404.0 260.1,405.7 259.6,407.4 259.2 C409.1 258.7,410.8 258.2,412.5 257.8 C414.2 257.4,416.0 256.9,417.7 256.5 C419.4 256.1,421.1 255.8,422.8 255.4 C424.5 255.0,426.2 254.7,427.9 254.3 C429.6 254.0,431.3 253.7,433.0 253.3 C434.7 253.0,436.4 252.7,438.2 252.5 C439.9 252.2,441.6 251.9,443.3 251.6 C445.0 251.4,446.7 251.1,448.4 250.9 C450.1 250.6,451.8 250.4,453.5 250.2 C455.2 250.0,456.9 249.8,458.7 249.6 C460.4 249.4,462.1 249.2,463.8 249.0 C465.5 248.8,467.2 248.7,468.9 248.5 C470.6 248.3,472.3 248.2,474.0 248.0 C475.7 247.9,477.4 247.7,479.1 247.6 C480.9 247.5,482.6 247.3,484.3 247.2 C486.0 247.1,487.7 247.0,489.4 246.9 C491.1 246.7,492.8 246.6,494.5 246.5 C496.2 246.4,497.9 246.3,499.6 246.2 C501.3 246.1,503.1 246.1,504.8 246.0 C506.5 245.9,508.2 245.8,509.9 245.7 C511.6 245.7,513.3 245.6,515.0 245.5 C516.7 245.4,518.4 245.4,520.1 245.3 C521.8 245.3,523.6 245.2,525.3 245.1 C527.0 245.1,528.7 245.0,530.4 245.0 C532.1 244.9,533.8 244.9,535.5 244.8 C537.2 244.8,538.9 244.7,540.6 244.7 C542.3 244.7,544.0 244.6,545.8 244.6 C547.5 244.5,549.2 244.5,550.9 244.5 C552.6 244.4,555.1 244.4,556.0 244.4" fill="none" stroke="#a86b46" stroke-width="2.6" stroke-linecap="round"></path><line x1="300.6" y1="216" x2="300.6" y2="412" stroke="#322e27" stroke-opacity="0.30" stroke-width="1" stroke-dasharray="2 4"></line><circle cx="300.6" cy="316.0" r="3.2" fill="#a86b46"></circle><text x="300.64" y="207" text-anchor="middle" font-family="Georgia, &#39;Songti SC&#39;, &#39;Source Han Serif SC&#39;, &#39;Noto Serif CJK SC&#39;, STSong, serif" font-style="italic" font-size="13.5" fill="#322e27">inflection point</text><text x="186.64" y="372.8" text-anchor="middle" font-family="Georgia, &#39;Songti SC&#39;, &#39;Source Han Serif SC&#39;, &#39;Noto Serif CJK SC&#39;, STSong, serif" font-style="italic" font-size="13.5" fill="#6f7a55">accelerating (warmup)</text><text x="473.91999999999996" y="314" text-anchor="middle" font-family="Georgia, &#39;Songti SC&#39;, &#39;Source Han Serif SC&#39;, &#39;Noto Serif CJK SC&#39;, STSong, serif" font-style="italic" font-size="13.5" fill="#a8842f">decelerating (convergence)</text><text x="56" y="72" font-family="Georgia, &#39;Songti SC&#39;, &#39;Source Han Serif SC&#39;, &#39;Noto Serif CJK SC&#39;, STSong, serif" font-size="12" letter-spacing="2.4" fill="#8c8475">FIG. 03 · LEARNING-CURVE STATS</text><text x="56" y="112" font-family="Georgia, &#39;Songti SC&#39;, &#39;Source Han Serif SC&#39;, &#39;Noto Serif CJK SC&#39;, STSong, serif" font-size="31" fill="#322e27"><tspan font-style="italic">Acceleration</tspan></text><text x="56" y="150" font-family="Georgia, &#39;Songti SC&#39;, &#39;Source Han Serif SC&#39;, &#39;Noto Serif CJK SC&#39;, STSong, serif" font-style="italic" font-size="18.5" fill="#322e27" opacity="0.82">Speeding up or slowing down?</text><text x="56" y="174" font-family="Georgia, &#39;Songti SC&#39;, &#39;Source Han Serif SC&#39;, &#39;Noto Serif CJK SC&#39;, STSong, serif" font-style="italic" font-size="13.5" fill="#8c8475">Is the change speeding up or fading?</text><line x1="606" y1="74" x2="606" y2="436" stroke="#322e27" stroke-opacity="0.20" stroke-width="1"></line><text x="636" y="100" font-family="Georgia, &#39;Songti SC&#39;, &#39;Source Han Serif SC&#39;, &#39;Noto Serif CJK SC&#39;, STSong, serif" font-size="12" letter-spacing="2.4" fill="#8c8475">AGENT READS</text><text x="636" y="146" font-family="Georgia, &#39;Songti SC&#39;, &#39;Source Han Serif SC&#39;, &#39;Noto Serif CJK SC&#39;, STSong, serif" font-size="16" fill="#a86b46">—</text><text x="660" y="146" font-family="Georgia, &#39;Songti SC&#39;, &#39;Source Han Serif SC&#39;, &#39;Noto Serif CJK SC&#39;, STSong, serif" font-size="16" fill="#322e27"><tspan x="660" dy="0">acceleration &gt; 0: speeding up</tspan><tspan x="660" dy="22">warmup works</tspan></text><text x="636" y="190" font-family="Georgia, &#39;Songti SC&#39;, &#39;Source Han Serif SC&#39;, &#39;Noto Serif CJK SC&#39;, STSong, serif" font-size="16" fill="#a86b46">—</text><text x="660" y="190" font-family="Georgia, &#39;Songti SC&#39;, &#39;Source Han Serif SC&#39;, &#39;Noto Serif CJK SC&#39;, STSong, serif" font-size="16" fill="#322e27"><tspan x="660" dy="0">acceleration ≈ 0:</tspan><tspan x="660" dy="22">roughly linear progress</tspan></text><text x="636" y="234" font-family="Georgia, &#39;Songti SC&#39;, &#39;Source Han Serif SC&#39;, &#39;Noto Serif CJK SC&#39;, STSong, serif" font-size="16" fill="#a86b46">—</text><text x="660" y="234" font-family="Georgia, &#39;Songti SC&#39;, &#39;Source Han Serif SC&#39;, &#39;Noto Serif CJK SC&#39;, STSong, serif" font-size="16" fill="#322e27"><tspan x="660" dy="0">acceleration &lt; 0:</tspan><tspan x="660" dy="22">gains slow near convergence</tspan></text><text x="72" y="454" font-family="Georgia, &#39;Songti SC&#39;, &#39;Source Han Serif SC&#39;, &#39;Noto Serif CJK SC&#39;, STSong, serif" font-style="italic" font-size="13" fill="#8c8475"><tspan x="72" dy="0">acceleration = d²(score) ∕ d(step)²</tspan><tspan x="72" dy="18">estimate from the smoothed curve</tspan></text>
</svg>