<svg width="1000" height="480" viewBox="0 0 1000 480" xmlns="http://www.w3.org/2000/svg" role="img">
<rect width="1000" height="480" fill="#f4f0e7"></rect><rect x="18" y="18" width="964" height="444" fill="none" stroke="#322e27" stroke-opacity="0.30" stroke-width="1"></rect><rect x="24" y="24" width="952" height="432" fill="none" stroke="#322e27" stroke-opacity="0.15" stroke-width="1"></rect>
<rect x="72" y="196" width="502" height="232" fill="#faf7ef" stroke="#322e27" stroke-opacity="0.13" stroke-width="1"></rect><line x1="100" y1="412" x2="556" y2="412" stroke="#322e27" stroke-opacity="0.42" stroke-width="1"></line><line x1="100" y1="216" x2="100" y2="412" stroke="#322e27" stroke-opacity="0.22" stroke-width="1"></line><text x="556" y="434" text-anchor="end" font-family="Georgia, &#39;Songti SC&#39;, &#39;Source Han Serif SC&#39;, &#39;Noto Serif CJK SC&#39;, STSong, serif" font-style="italic" font-size="13" fill="#8c8475">step →</text><text x="102" y="207" font-family="Georgia, &#39;Songti SC&#39;, &#39;Source Han Serif SC&#39;, &#39;Noto Serif CJK SC&#39;, STSong, serif" font-style="italic" font-size="13" fill="#8c8475">score ↑</text><path d="M100.0 354.7 L103.8 353.9 L107.7 352.9 L111.5 352.7 L115.3 351.5 L119.2 350.1 L123.0 349.0 L126.8 346.3 L130.7 343.9 L134.5 341.7 L138.3 340.0 L142.2 337.6 L146.0 335.5 L149.8 333.6 L153.6 331.2 L157.5 330.0 L161.3 327.6 L165.1 325.2 L169.0 322.7 L172.8 321.3 L176.6 318.9 L180.5 316.7 L184.3 314.6 L188.1 312.6 L192.0 310.5 L195.8 308.9 L199.6 307.3 L203.5 306.7 L207.3 305.3 L211.1 304.3 L215.0 302.5 L218.8 301.4 L222.6 300.2 L226.5 298.5 L230.3 296.9 L234.1 294.8 L237.9 293.1 L241.8 291.5 L245.6 290.0 L249.4 289.3 L253.3 288.5 L257.1 287.7 L260.9 287.3 L264.8 285.7 L268.6 285.4 L272.4 284.4 L276.3 284.0 L280.1 282.8 L283.9 281.1 L287.8 279.3 L291.6 278.3 L295.4 277.0 L299.3 276.2 L303.1 275.7 L306.9 275.5 L310.8 274.0 L314.6 272.9 L318.4 271.6 L322.3 270.6 L326.1 270.5 L329.9 269.5 L333.7 269.2 L337.6 268.1 L341.4 267.6 L345.2 266.5 L349.1 266.2 L352.9 266.0 L356.7 265.0 L360.6 265.1 L364.4 264.1 L368.2 263.9 L372.1 263.0 L375.9 263.2 L379.7 262.1 L383.6 262.3 L387.4 261.3 L391.2 260.8 L395.1 259.8 L398.9 259.6 L402.7 259.3 L406.6 259.0 L410.4 259.0 L414.2 259.2 L418.1 258.5 L421.9 258.2 L425.7 257.7 L429.5 257.3 L433.4 256.8 L437.2 256.9 L441.0 256.5 L444.9 255.5 L448.7 255.2 L452.5 255.0 L456.4 254.3 L460.2 253.9 L464.0 253.7 L467.9 253.8 L471.7 254.0 L475.5 253.0 L479.4 253.0 L483.2 253.5 L487.0 253.4 L490.9 252.8 L494.7 252.6 L498.5 252.4 L502.4 252.7 L506.2 252.9 L510.0 252.1 L513.8 251.7 L517.7 251.2 L521.5 251.0 L525.3 250.9 L529.2 249.9 L533.0 249.6 L536.8 249.5 L540.7 249.6 L544.5 248.7 L548.3 248.4 L552.2 249.1 L556.0 248.7" fill="none" stroke="#322e27" stroke-opacity="0.3" stroke-width="1" stroke-dasharray="3 5"></path><path d="M100.0 388.0 L103.8 387.2 L107.7 386.2 L111.5 386.0 L115.3 384.8 L119.2 383.5 L123.0 382.3 L126.8 379.6 L130.7 377.2 L134.5 375.0 L138.3 373.3 L142.2 370.9 L146.0 368.8 L149.8 366.9 L153.6 364.5 L157.5 363.3 L161.3 360.9 L165.1 358.5 L169.0 356.1 L172.8 354.6 L176.6 352.2 L180.5 350.0 L184.3 348.0 L188.1 345.9 L192.0 343.8 L195.8 342.2 L199.6 340.7 L203.5 340.1 L207.3 338.6 L211.1 337.6 L215.0 335.8 L218.8 334.7 L222.6 333.6 L226.5 331.8 L230.3 330.2 L234.1 328.1 L237.9 326.4 L241.8 324.9 L245.6 323.3 L249.4 322.6 L253.3 321.9 L257.1 321.0 L260.9 320.7 L264.8 319.0 L268.6 318.7 L272.4 317.7 L276.3 317.3 L280.1 316.2 L283.9 314.4 L287.8 312.7 L291.6 311.6 L295.4 310.3 L299.3 309.5 L303.1 309.0 L306.9 308.8 L310.8 307.3 L314.6 306.2 L318.4 304.9 L322.3 303.9 L326.1 303.8 L329.9 302.8 L333.7 302.5 L337.6 301.4 L341.4 301.0 L345.2 299.9 L349.1 299.5 L352.9 299.3 L356.7 298.3 L360.6 298.4 L364.4 297.5 L368.2 297.3 L372.1 296.3 L375.9 296.6 L379.7 295.4 L383.6 295.6 L387.4 294.6 L391.2 294.2 L395.1 293.1 L398.9 292.9 L402.7 292.6 L406.6 292.4 L410.4 292.3 L414.2 292.5 L418.1 291.9 L421.9 291.5 L425.7 291.0 L429.5 290.6 L433.4 290.1 L437.2 290.3 L441.0 289.8 L444.9 288.8 L448.7 288.6 L452.5 288.3 L456.4 287.6 L460.2 287.2 L464.0 287.0 L467.9 287.1 L471.7 287.3 L475.5 286.3 L479.4 286.3 L483.2 286.8 L487.0 286.7 L490.9 286.1 L494.7 285.9 L498.5 285.7 L502.4 286.0 L506.2 286.2 L510.0 285.4 L513.8 285.0 L517.7 284.6 L521.5 284.3 L525.3 284.2 L529.2 283.2 L533.0 282.9 L536.8 282.8 L540.7 282.9 L544.5 282.1 L548.3 281.7 L552.2 282.5 L556.0 282.0" fill="none" stroke="#322e27" stroke-opacity="0.3" stroke-width="1" stroke-dasharray="3 5"></path><polyline points="100.0,371.3 103.8,367.1 107.7,365.1 111.5,368.4 115.3,362.6 119.2,360.7 123.0,360.5 126.8,350.7 130.7,349.3 134.5,348.3 138.3,349.0 142.2,343.3 146.0,342.5 149.8,341.7 153.6,337.1 157.5,340.9 161.3,333.2 165.1,330.9 169.0,328.4 172.8,331.4 176.6,324.5 180.5,323.2 184.3,322.1 188.1,320.2 192.0,317.3 195.8,318.3 199.6,317.0 203.5,320.7 207.3,365.1 211.1,316.6 215.0,310.7 218.8,313.1 222.6,311.8 226.5,307.1 230.3,306.1 234.1,302.0 237.9,302.2 241.8,301.0 245.6,299.4 249.4,303.1 253.3,301.6 257.1,300.6 260.9,302.3 264.8,294.7 268.6,300.9 272.4,296.5 276.3,298.7 280.1,294.3 283.9,289.7 287.8,288.1 291.6,290.0 295.4,287.8 299.3,289.4 303.1,290.0 306.9,291.3 310.8,283.6 314.6,284.9 318.4,282.1 322.3,282.7 326.1,286.8 329.9,281.6 333.7,284.3 337.6,279.7 341.4,319.0 345.2,278.1 349.1,281.4 352.9,281.8 356.7,277.0 360.6,282.0 364.4,276.7 368.2,279.6 372.1,275.4 375.9,281.0 379.7,273.5 383.6,279.7 387.4,273.4 391.2,275.6 395.1,271.7 398.9,275.2 402.7,274.9 406.6,274.4 410.4,275.3 414.2,276.8 418.1,272.3 421.9,273.1 425.7,272.3 429.5,272.1 433.4,271.2 437.2,274.2 441.0,270.9 444.9,267.6 448.7,270.9 452.5,270.7 456.4,267.4 460.2,269.0 464.0,304.2 467.9,270.7 471.7,271.7 475.5,265.2 479.4,269.7 483.2,272.3 487.0,269.5 490.9,266.9 494.7,268.2 498.5,268.2 502.4,270.6 506.2,270.7 510.0,265.0 513.8,266.7 517.7,265.8 521.5,266.6 525.3,267.0 529.2,262.1 533.0,264.7 536.8,265.8 540.7,266.7 544.5,261.5 548.3,263.5 552.2,269.2 556.0,263.3" fill="none" stroke="#a86b46" stroke-width="1.5" stroke-linejoin="round"></polyline><circle cx="207.3" cy="365.1" r="7" fill="none" stroke="#a86b46" stroke-width="1.6"></circle><circle cx="341.4" cy="319.0" r="7" fill="none" stroke="#a86b46" stroke-width="1.6"></circle><circle cx="464.0" cy="304.2" r="7" fill="none" stroke="#a86b46" stroke-width="1.6"></circle><text x="207.29411764705884" y="389.1009707732537" text-anchor="middle" font-family="Georgia, &#39;Songti SC&#39;, &#39;Source Han Serif SC&#39;, &#39;Noto Serif CJK SC&#39;, STSong, serif" font-style="italic" font-size="13.5" fill="#a86b46">spike</text><text x="556" y="241.68008694883244" text-anchor="end" font-family="Georgia, &#39;Songti SC&#39;, &#39;Source Han Serif SC&#39;, &#39;Noto Serif CJK SC&#39;, STSong, serif" font-style="italic" font-size="13.5" fill="#8c8475">± 3.5 × MAD</text><text x="56" y="72" font-family="Georgia, &#39;Songti SC&#39;, &#39;Source Han Serif SC&#39;, &#39;Noto Serif CJK SC&#39;, STSong, serif" font-size="12" letter-spacing="2.4" fill="#8c8475">FIG. 05 · LEARNING-CURVE STATS</text><text x="56" y="112" font-family="Georgia, &#39;Songti SC&#39;, &#39;Source Han Serif SC&#39;, &#39;Noto Serif CJK SC&#39;, STSong, serif" font-size="31" fill="#322e27"><tspan font-style="italic">Spikes</tspan><tspan fill="#8c8475"> · </tspan><tspan>异常尖峰</tspan></text><text x="56" y="150" font-family="Georgia, &#39;Songti SC&#39;, &#39;Source Han Serif SC&#39;, &#39;Noto Serif CJK SC&#39;, STSong, serif" font-style="italic" font-size="18.5" fill="#322e27" opacity="0.82">异常,是偶然,还是征兆？</text><text x="56" y="174" font-family="Georgia, &#39;Songti SC&#39;, &#39;Source Han Serif SC&#39;, &#39;Noto Serif CJK SC&#39;, STSong, serif" font-style="italic" font-size="13.5" fill="#8c8475">An accident, or an omen?</text><line x1="606" y1="74" x2="606" y2="436" stroke="#322e27" stroke-opacity="0.20" stroke-width="1"></line><text x="636" y="100" font-family="Georgia, &#39;Songti SC&#39;, &#39;Source Han Serif SC&#39;, &#39;Noto Serif CJK SC&#39;, STSong, serif" font-size="12" letter-spacing="2.4" fill="#8c8475">AI 由此读出</text><text x="636" y="146" font-family="Georgia, &#39;Songti SC&#39;, &#39;Source Han Serif SC&#39;, &#39;Noto Serif CJK SC&#39;, STSong, serif" font-size="16" fill="#a86b46">—</text><text x="660" y="146" font-family="Georgia, &#39;Songti SC&#39;, &#39;Source Han Serif SC&#39;, &#39;Noto Serif CJK SC&#39;, STSong, serif" font-size="16" fill="#322e27">以 3.5×MAD 稳健阈值识别异常</text><text x="636" y="190" font-family="Georgia, &#39;Songti SC&#39;, &#39;Source Han Serif SC&#39;, &#39;Noto Serif CJK SC&#39;, STSong, serif" font-size="16" fill="#a86b46">—</text><text x="660" y="190" font-family="Georgia, &#39;Songti SC&#39;, &#39;Source Han Serif SC&#39;, &#39;Noto Serif CJK SC&#39;, STSong, serif" font-size="16" fill="#322e27">定位坏 batch、数值溢出、评估抖动</text><text x="636" y="234" font-family="Georgia, &#39;Songti SC&#39;, &#39;Source Han Serif SC&#39;, &#39;Noto Serif CJK SC&#39;, STSong, serif" font-size="16" fill="#a86b46">—</text><text x="660" y="234" font-family="Georgia, &#39;Songti SC&#39;, &#39;Source Han Serif SC&#39;, &#39;Noto Serif CJK SC&#39;, STSong, serif" font-size="16" fill="#322e27">最大回撤提示 checkpoint 风险</text><text x="72" y="454" font-family="Georgia, &#39;Songti SC&#39;, &#39;Source Han Serif SC&#39;, &#39;Noto Serif CJK SC&#39;, STSong, serif" font-style="italic" font-size="13" fill="#8c8475">spike_count / max_spike / max_drawdown</text>
</svg>